<svg xmlns="http://www.w3.org/2000/svg" viewBox="0 0 48 48"><g data-name="Layer 2"><rect width="20" height="26" x="14" y="10" fill="#26e0ff" rx="10" ry="10"/><path fill="none" stroke="#000" stroke-linecap="round" stroke-linejoin="round" stroke-width="2" d="M11 19V29H8a2 2 0 0 1-2-2V21a2 2 0 0 1 2-2zM42 21v6a2 2 0 0 1-2 2H37V19h3A2 2 0 0 1 42 21zM38 29v1A12 12 0 0 1 26 42M10 19A14 14 0 0 1 38 19"/><rect width="5" height="3" x="22" y="39" fill="none" stroke="#000" stroke-linecap="round" stroke-linejoin="round" stroke-width="2" rx="1.5" ry="1.5"/><path fill="none" stroke="#000" stroke-linecap="round" stroke-linejoin="round" stroke-width="2" d="M27,30h0a4.24,4.24,0,0,1-6,0h0"/></g></svg>