<svg width="3688" height="745" viewBox="0 0 3688 745" fill="none" xmlns="http://www.w3.org/2000/svg">
<path d="M801.042 562.783H0V575.94H801.042V562.783Z" fill="#B2B2B2"/>
<path d="M801.042 616.131H0V629.288H801.042V616.131Z" fill="#B2B2B2"/>
<path d="M801.042 669.484H0V682.641H801.042V669.484Z" fill="#B2B2B2"/>
<path d="M3039.23 562.783H2238.18V575.94H3039.23V562.783Z" fill="#B2B2B2"/>
<path d="M3039.23 616.131H2238.18V629.288H3039.23V616.131Z" fill="#B2B2B2"/>
<path d="M3039.23 669.484H2238.18V682.641H3039.23V669.484Z" fill="#B2B2B2"/>
<path d="M131.76 94.2542V192.957H181.111C187.874 192.957 194.237 191.696 200.198 189.172C206.159 186.538 211.375 182.984 215.846 178.514C220.316 174.04 223.813 168.827 226.335 162.864C228.971 156.789 230.29 150.369 230.29 143.606C230.29 136.842 228.971 130.481 226.335 124.518C223.813 118.443 220.316 113.168 215.846 108.698C211.375 104.227 206.159 100.731 200.198 98.2099C194.237 95.5727 187.874 94.2542 181.111 94.2542H131.76ZM131.76 291.487H82.4087V44.9025H181.111C190.167 44.9025 198.88 46.1084 207.248 48.5143C215.616 50.8073 223.412 54.1326 230.634 58.4874C237.97 62.7295 244.619 67.8881 250.58 73.9635C256.656 79.926 261.815 86.5739 266.056 93.91C270.413 101.246 273.737 109.1 276.03 117.468C278.437 125.837 279.641 134.549 279.641 143.606C279.641 152.09 278.552 160.343 276.374 168.367C274.31 176.391 271.272 184.014 267.26 191.237C263.363 198.46 258.548 205.108 252.816 211.183C247.084 217.259 240.664 222.533 233.557 227.003L260.898 291.487H208.451L186.957 241.791L131.76 242.135V291.487ZM378.342 246.435C380.176 247.008 382.012 247.41 383.845 247.638C385.679 247.754 387.515 247.809 389.348 247.809C393.934 247.809 398.347 247.178 402.589 245.918C406.831 244.657 410.784 242.881 414.453 240.588C418.235 238.18 421.561 235.314 424.426 231.992C427.408 228.551 429.814 224.768 431.65 220.642L466.04 255.203C461.682 261.394 456.639 266.954 450.908 271.885C445.29 276.812 439.157 280.996 432.509 284.437C425.974 287.875 419.039 290.455 411.703 292.175C404.48 294.009 397.028 294.925 389.348 294.925C376.393 294.925 364.185 292.519 352.723 287.705C341.373 282.89 331.4 276.181 322.803 267.585C314.319 258.988 307.613 248.783 302.683 236.977C297.752 225.055 295.289 211.987 295.289 197.772C295.289 183.213 297.752 169.914 302.683 157.879C307.613 145.841 314.319 135.581 322.803 127.097C331.4 118.616 341.373 112.023 352.723 107.324C364.185 102.622 376.393 100.272 389.348 100.272C397.028 100.272 404.538 101.191 411.874 103.024C419.21 104.858 426.147 107.495 432.679 110.933C439.33 114.374 445.521 118.616 451.252 123.659C456.983 128.59 462.026 134.147 466.384 140.338L378.342 246.435ZM402.415 149.623C400.238 148.822 398.061 148.305 395.883 148.076C393.819 147.848 391.641 147.732 389.348 147.732C382.929 147.732 376.853 148.935 371.122 151.344C365.504 153.637 360.573 156.959 356.331 161.317C352.205 165.672 348.937 170.946 346.532 177.137C344.123 183.212 342.92 190.092 342.92 197.772C342.92 199.49 342.978 201.438 343.093 203.619C343.322 205.796 343.608 208.031 343.952 210.324C344.409 212.502 344.927 214.621 345.499 216.686C346.072 218.751 346.818 220.584 347.734 222.189L402.415 149.623ZM649.688 143.95L615.295 178.514C613.577 173.699 611.226 169.399 608.245 165.617C605.267 161.719 601.883 158.451 598.101 155.814C594.432 153.177 590.421 151.17 586.063 149.797C581.709 148.42 577.238 147.732 572.652 147.732C566.232 147.732 560.157 149.051 554.423 151.688C548.807 154.325 543.877 158.049 539.635 162.864C535.509 167.566 532.241 173.181 529.835 179.717C527.427 186.252 526.224 193.472 526.224 201.384C526.224 207.803 527.427 213.821 529.835 219.439C532.241 225.055 535.509 229.985 539.635 234.227C543.877 238.466 548.807 241.791 554.423 244.2C560.157 246.606 566.232 247.809 572.652 247.809C577.238 247.809 581.651 247.178 585.893 245.918C590.135 244.657 594.088 242.881 597.757 240.588C601.539 238.18 604.865 235.314 607.73 231.992C610.712 228.551 613.117 224.768 614.954 220.642L649.344 255.203C644.986 261.394 639.943 266.954 634.212 271.885C628.594 276.812 622.46 280.996 615.812 284.437C609.277 287.875 602.343 290.455 595.004 292.175C587.784 294.009 580.332 294.925 572.652 294.925C559.697 294.925 547.489 292.519 536.026 287.705C524.677 282.774 514.703 276.069 506.104 267.585C497.623 259.101 490.917 249.185 485.987 237.836C481.056 226.489 478.593 214.335 478.593 201.384C478.593 187.281 481.056 174.098 485.987 161.832C490.917 149.565 497.623 138.907 506.104 129.85C514.703 120.678 524.677 113.457 536.026 108.183C547.489 102.909 559.697 100.272 572.652 100.272C580.332 100.272 587.842 101.246 595.178 103.195C602.63 105.144 609.679 108.01 616.327 111.795C623.091 115.461 629.282 119.99 634.9 125.38C640.631 130.767 645.562 136.958 649.688 143.95ZM719.671 291.487H672.729V107.324H684.078L699.554 129.162C707.119 122.283 715.719 117.011 725.348 113.342C734.977 109.559 744.95 107.668 755.268 107.668H796.708V154.438H755.268C750.337 154.438 745.696 155.354 741.338 157.191C736.984 159.024 733.199 161.545 729.989 164.755C726.779 167.965 724.258 171.75 722.424 176.105C720.591 180.463 719.671 185.104 719.671 190.034V291.487ZM952.5 269.993C948.715 273.432 944.647 276.699 940.292 279.793C936.05 282.775 931.579 285.412 926.878 287.705C922.179 289.882 917.306 291.6 912.263 292.863C907.333 294.237 902.287 294.925 897.131 294.925C885.782 294.925 875.12 292.918 865.147 288.908C855.174 284.894 846.403 279.221 838.836 271.885C831.387 264.433 825.482 255.434 821.125 244.888C816.885 234.227 814.763 222.305 814.763 209.122V107.324H861.535V209.122C861.535 215.31 862.452 220.87 864.285 225.801C866.234 230.615 868.813 234.684 872.023 238.009C875.233 241.334 878.96 243.856 883.202 245.573C887.557 247.294 892.201 248.153 897.131 248.153C901.946 248.153 906.474 247.066 910.713 244.888C915.071 242.595 918.853 239.614 922.063 235.944C925.273 232.278 927.794 228.149 929.63 223.565C931.464 218.864 932.38 214.049 932.38 209.122V107.324H979.323V291.487H967.976L952.5 269.993ZM1070.63 57.2845C1070.63 61.6393 1069.77 65.7107 1068.05 69.4929C1066.45 73.2752 1064.21 76.6007 1061.35 79.4663C1058.48 82.2191 1055.1 84.4543 1051.2 86.1719C1047.42 87.7768 1043.35 88.5807 1038.99 88.5807C1034.64 88.5807 1030.51 87.7768 1026.61 86.1719C1022.83 84.4543 1019.51 82.2191 1016.64 79.4663C1013.89 76.6007 1011.65 73.2752 1009.93 69.4929C1008.33 65.7107 1007.53 61.6393 1007.53 57.2845C1007.53 53.0424 1008.33 49.0318 1009.93 45.2467C1011.65 41.3488 1013.89 38.0262 1016.64 35.2733C1019.51 32.4077 1022.83 30.1726 1026.61 28.5677C1030.51 26.8472 1034.64 25.9883 1038.99 25.9883C1043.35 25.9883 1047.42 26.8472 1051.2 28.5677C1055.1 30.1726 1058.48 32.4077 1061.35 35.2733C1064.21 38.0262 1066.45 41.3488 1068.05 45.2467C1069.77 49.0318 1070.63 53.0424 1070.63 57.2845ZM1062.55 291.487H1015.26V107.324H1062.55V291.487ZM1190.83 291.487C1179.48 291.487 1168.82 289.365 1158.84 285.125C1148.87 280.768 1140.1 274.863 1132.54 267.414C1125.08 259.847 1119.18 251.076 1114.83 241.103C1110.58 231.13 1108.46 220.468 1108.46 209.122V154.438H1085.59V107.668H1108.46V34.0704H1155.23V107.668H1226.42V154.438H1155.23V209.122C1155.23 214.049 1156.15 218.693 1157.99 223.048C1159.82 227.29 1162.34 231.017 1165.55 234.227C1168.76 237.437 1172.54 240.016 1176.9 241.965C1181.26 243.798 1185.9 244.715 1190.83 244.715H1226.42V291.487H1190.83ZM1487.11 291.487H1440.33V174.558C1440.33 171.348 1439.7 168.309 1438.44 165.443C1437.3 162.578 1435.64 160.056 1433.46 157.879C1431.28 155.699 1428.76 154.039 1425.89 152.891C1423.02 151.63 1419.99 151 1416.78 151C1413.57 151 1410.53 151.63 1407.66 152.891C1404.91 154.039 1402.45 155.699 1400.27 157.879C1398.21 160.056 1396.54 162.578 1395.28 165.443C1394.14 168.309 1393.56 171.348 1393.56 174.558V291.487H1346.62V174.558C1346.62 171.348 1345.99 168.309 1344.73 165.443C1343.58 162.578 1341.92 160.056 1339.74 157.879C1337.56 155.699 1335.04 154.039 1332.18 152.891C1329.31 151.63 1326.27 151 1323.06 151C1319.85 151 1316.81 151.63 1313.95 152.891C1311.2 154.039 1308.73 155.699 1306.55 157.879C1304.49 160.056 1302.83 162.578 1301.57 165.443C1300.42 168.309 1299.85 171.348 1299.85 174.558V291.487H1252.9V107.324H1264.25L1276.98 121.424C1283.51 115.921 1290.68 111.679 1298.47 108.698C1306.38 105.604 1314.58 104.057 1323.06 104.057C1331.66 104.057 1340.03 105.662 1348.17 108.871C1356.42 112.081 1363.64 117.642 1369.83 125.55C1372.7 121.652 1375.97 118.327 1379.64 115.577C1383.3 112.827 1387.14 110.589 1391.16 108.871C1395.28 107.151 1399.52 105.948 1403.88 105.26C1408.24 104.456 1412.53 104.057 1416.78 104.057C1426.52 104.057 1435.64 105.89 1444.12 109.56C1452.72 113.226 1460.17 118.272 1466.47 124.692C1472.89 130.995 1477.93 138.447 1481.6 147.044C1485.27 155.644 1487.11 164.813 1487.11 174.558V291.487ZM1594.75 246.435C1596.58 247.008 1598.42 247.41 1600.25 247.638C1602.09 247.754 1603.92 247.809 1605.76 247.809C1610.34 247.809 1614.76 247.178 1618.99 245.918C1623.24 244.657 1627.19 242.881 1630.86 240.588C1634.64 238.18 1637.97 235.314 1640.83 231.992C1643.81 228.551 1646.22 224.768 1648.06 220.642L1682.45 255.203C1678.09 261.394 1673.05 266.954 1667.31 271.885C1661.7 276.812 1655.56 280.996 1648.92 284.437C1642.38 287.875 1635.44 290.455 1628.11 292.175C1620.89 294.009 1613.44 294.925 1605.76 294.925C1592.8 294.925 1580.59 292.519 1569.13 287.705C1557.78 282.89 1547.8 276.181 1539.21 267.585C1530.72 258.988 1524.02 248.783 1519.09 236.977C1514.16 225.055 1511.7 211.987 1511.7 197.772C1511.7 183.213 1514.16 169.914 1519.09 157.879C1524.02 145.841 1530.72 135.581 1539.21 127.097C1547.8 118.616 1557.78 112.023 1569.13 107.324C1580.59 102.622 1592.8 100.272 1605.76 100.272C1613.44 100.272 1620.94 101.191 1628.28 103.024C1635.62 104.858 1642.55 107.495 1649.09 110.933C1655.74 114.374 1661.93 118.616 1667.66 123.659C1673.39 128.59 1678.43 134.147 1682.79 140.338L1594.75 246.435ZM1618.82 149.623C1616.65 148.822 1614.47 148.305 1612.29 148.076C1610.23 147.848 1608.05 147.732 1605.76 147.732C1599.33 147.732 1593.26 148.935 1587.53 151.344C1581.91 153.637 1576.98 156.959 1572.74 161.317C1568.61 165.672 1565.35 170.946 1562.94 177.137C1560.53 183.212 1559.33 190.092 1559.33 197.772C1559.33 199.49 1559.39 201.438 1559.5 203.619C1559.73 205.796 1560.02 208.031 1560.36 210.324C1560.82 212.502 1561.33 214.621 1561.91 216.686C1562.48 218.751 1563.23 220.584 1564.14 222.189L1618.82 149.623ZM1753.46 291.487H1706.52V107.324H1717.87L1733.34 125.206C1740.91 118.327 1749.45 113.056 1758.97 109.386C1768.6 105.604 1778.63 103.713 1789.06 103.713C1800.29 103.713 1810.9 105.89 1820.87 110.248C1830.84 114.487 1839.56 120.392 1847.01 127.959C1854.46 135.408 1860.3 144.178 1864.55 154.267C1868.9 164.24 1871.08 174.902 1871.08 186.252V291.487H1824.14V186.252C1824.14 181.437 1823.22 176.909 1821.39 172.667C1819.55 168.309 1817.03 164.527 1813.82 161.317C1810.61 158.107 1806.88 155.586 1802.64 153.749C1798.4 151.916 1793.87 151 1789.06 151C1784.13 151 1779.49 151.916 1775.13 153.749C1770.77 155.586 1766.99 158.107 1763.78 161.317C1760.57 164.527 1758.05 168.309 1756.21 172.667C1754.38 176.909 1753.46 181.437 1753.46 186.252V291.487ZM1994.55 291.487C1983.2 291.487 1972.53 289.365 1962.56 285.125C1952.59 280.768 1943.82 274.863 1936.25 267.414C1928.8 259.847 1922.9 251.076 1918.54 241.103C1914.3 231.13 1912.18 220.468 1912.18 209.122V154.438H1889.31V107.668H1912.18V34.0704H1958.95V107.668H2030.14V154.438H1958.95V209.122C1958.95 214.049 1959.87 218.693 1961.7 223.048C1963.54 227.29 1966.06 231.017 1969.27 234.227C1972.48 237.437 1976.26 240.016 1980.62 241.965C1984.97 243.798 1989.62 244.715 1994.55 244.715H2030.14V291.487H1994.55ZM2387.81 224.939C2387.81 234.571 2385.97 243.682 2382.3 252.282C2378.63 260.763 2373.59 268.157 2367.17 274.464C2360.86 280.768 2353.41 285.756 2344.82 289.422C2336.33 293.092 2327.22 294.925 2317.48 294.925C2308.76 294.925 2300.39 293.436 2292.37 290.455C2284.35 287.361 2277.06 282.89 2270.53 277.043C2264.11 282.89 2256.89 287.361 2248.87 290.455C2240.96 293.436 2232.59 294.925 2223.76 294.925C2214.02 294.925 2204.9 293.092 2196.42 289.422C2187.94 285.756 2180.48 280.768 2174.06 274.464C2167.76 268.157 2162.77 260.763 2159.11 252.282C2155.44 243.682 2153.6 234.571 2153.6 224.939V107.668H2200.55V224.939C2200.55 228.149 2201.12 231.188 2202.27 234.053C2203.53 236.806 2205.19 239.27 2207.25 241.447C2209.43 243.512 2211.9 245.175 2214.65 246.435C2217.51 247.58 2220.55 248.153 2223.76 248.153C2226.97 248.153 2230.01 247.58 2232.87 246.435C2235.74 245.175 2238.26 243.512 2240.44 241.447C2242.62 239.27 2244.28 236.806 2245.43 234.053C2246.69 231.188 2247.32 228.149 2247.32 224.939V107.668H2294.09V224.939C2294.09 228.149 2294.72 231.188 2295.98 234.053C2297.24 236.806 2298.91 239.27 2300.97 241.447C2303.15 243.512 2305.61 245.175 2308.36 246.435C2311.23 247.58 2314.27 248.153 2317.48 248.153C2320.69 248.153 2323.72 247.58 2326.59 246.435C2329.46 245.175 2331.92 243.512 2333.98 241.447C2336.16 239.27 2337.88 236.806 2339.14 234.053C2340.4 231.188 2341.03 228.149 2341.03 224.939V107.668H2387.81V224.939ZM2599.82 197.772C2599.82 211.528 2597.36 224.366 2592.43 236.288C2587.5 248.098 2580.8 258.357 2572.31 267.07C2563.83 275.667 2553.86 282.488 2542.39 287.531C2531.04 292.461 2518.83 294.925 2505.76 294.925C2492.81 294.925 2480.6 292.461 2469.14 287.531C2457.79 282.488 2447.82 275.667 2439.22 267.07C2430.73 258.357 2424.03 248.098 2419.1 236.288C2414.17 224.366 2411.71 211.528 2411.71 197.772C2411.71 183.785 2414.17 170.831 2419.1 158.908C2424.03 146.986 2430.73 136.726 2439.22 128.13C2447.82 119.417 2457.79 112.596 2469.14 107.668C2480.6 102.738 2492.81 100.272 2505.76 100.272C2518.83 100.272 2531.04 102.622 2542.39 107.324C2553.86 111.908 2563.83 118.5 2572.31 127.097C2580.8 135.581 2587.5 145.841 2592.43 157.879C2597.36 169.801 2599.82 183.097 2599.82 197.772ZM2552.54 197.772C2552.54 190.205 2551.28 183.383 2548.75 177.308C2546.35 171.12 2543.02 165.845 2538.78 161.488C2534.54 157.017 2529.55 153.637 2523.82 151.344C2518.2 148.935 2512.19 147.732 2505.76 147.732C2499.34 147.732 2493.27 148.935 2487.54 151.344C2481.92 153.637 2476.99 157.017 2472.75 161.488C2468.62 165.845 2465.36 171.12 2462.95 177.308C2460.54 183.383 2459.34 190.205 2459.34 197.772C2459.34 204.88 2460.54 211.47 2462.95 217.545C2465.36 223.623 2468.62 228.895 2472.75 233.365C2476.99 237.836 2481.92 241.389 2487.54 244.027C2493.27 246.548 2499.34 247.809 2505.76 247.809C2512.19 247.809 2518.2 246.606 2523.82 244.2C2529.55 241.791 2534.54 238.411 2538.78 234.053C2543.02 229.699 2546.35 224.424 2548.75 218.233C2551.28 212.042 2552.54 205.224 2552.54 197.772ZM2672.73 291.487H2625.79V107.324H2637.14L2652.62 129.162C2660.18 122.283 2668.78 117.011 2678.41 113.342C2688.04 109.559 2698.01 107.668 2708.33 107.668H2749.77V154.438H2708.33C2703.4 154.438 2698.76 155.354 2694.4 157.191C2690.04 159.024 2686.26 161.545 2683.05 164.755C2679.84 167.965 2677.32 171.75 2675.49 176.105C2673.65 180.463 2672.73 185.104 2672.73 190.034V291.487ZM2818.89 291.487H2771.61V34.0704H2818.89V291.487ZM3032.81 291.487H3021.44L3003.23 266.208C2998.75 270.222 2994 274.004 2988.97 277.558C2984.03 280.996 2978.82 284.035 2973.3 286.672C2967.8 289.194 2962.14 291.201 2956.3 292.69C2950.54 294.179 2944.7 294.925 2938.74 294.925C2925.79 294.925 2913.59 292.519 2902.11 287.705C2890.77 282.774 2880.8 276.011 2872.2 267.414C2863.72 258.702 2857.01 248.439 2852.08 236.633C2847.15 224.71 2844.69 211.756 2844.69 197.772C2844.69 183.901 2847.15 171.004 2852.08 159.082C2857.01 147.16 2863.72 136.842 2872.2 128.13C2880.8 119.417 2890.77 112.596 2902.11 107.668C2913.59 102.738 2925.79 100.272 2938.74 100.272C2942.88 100.272 2947.13 100.616 2951.47 101.304C2955.95 101.992 2960.23 103.14 2964.36 104.745C2968.61 106.234 2972.58 108.241 2976.22 110.762C2979.89 113.284 2982.99 116.378 2985.53 120.048V34.0704H3032.81V291.487ZM2985.53 197.772C2985.53 191.353 2984.26 185.161 2981.74 179.199C2979.34 173.124 2976.02 167.794 2971.77 163.208C2967.52 158.509 2962.54 154.782 2956.82 152.032C2951.18 149.166 2945.16 147.732 2938.74 147.732C2932.32 147.732 2926.25 148.88 2920.53 151.17C2914.92 153.463 2909.97 156.789 2905.72 161.143C2901.62 165.385 2898.35 170.602 2895.92 176.793C2893.52 182.984 2892.33 189.976 2892.33 197.772C2892.33 204.536 2893.52 210.955 2895.92 217.03C2898.35 223.106 2901.62 228.438 2905.72 233.021C2909.97 237.607 2914.92 241.219 2920.53 243.856C2926.25 246.493 2932.32 247.809 2938.74 247.809C2945.16 247.809 2951.18 246.435 2956.82 243.682C2962.54 240.817 2967.52 237.092 2971.77 232.506C2976.02 227.807 2979.34 222.475 2981.74 216.516C2984.26 210.437 2985.53 204.191 2985.53 197.772Z" fill="#1D1D1B"/>
<path d="M971.762 608.496C973.856 615.87 975.391 623.391 976.36 630.993C977.528 639.212 977.43 647.56 976.071 655.746C974.928 663.16 971.187 669.924 965.516 674.831C961.361 677.959 956.561 680.122 951.463 681.163C946.446 682.233 941.325 682.728 936.195 682.638H923.934C923.865 686.976 923.261 691.287 922.141 695.477C920.869 700.156 918.489 704.458 915.202 708.021C911.917 711.586 907.819 714.305 903.259 715.95C896.897 718.116 890.195 719.096 883.48 718.841L881.572 698.108C887.673 698.108 892.097 696.634 894.816 693.626C897.534 690.619 898.922 685.935 898.922 678.995V608.381L971.762 608.496ZM924.166 658.262H933.188C938.554 658.617 943.936 657.787 948.947 655.833C952.966 653.78 955.482 650.049 955.482 643.572C955.442 639.975 955.103 636.386 954.47 632.844H924.166V658.262Z" fill="#1D1D1B"/>
<path d="M1034.57 672.318C1034.54 674.255 1034.71 676.193 1035.06 678.101C1035.25 679.917 1035.95 681.646 1037.09 683.075L1017.19 697.533C1012.01 692.001 1009.23 684.636 1009.47 677.06V551.187L1034.57 543.004V672.318Z" fill="#1D1D1B"/>
<path d="M1137.92 608.497C1139.22 615.119 1140.43 622.608 1141.24 630.127C1141.53 633.915 1141.73 637.616 1141.73 641.317C1141.74 644.909 1141.47 648.494 1140.92 652.045C1140.92 653.546 1141.31 655.021 1142.05 656.325C1142.42 656.964 1142.97 657.484 1143.62 657.826C1144.28 658.17 1145.02 658.32 1145.75 658.262H1161.63V682.639H1145.55C1142.04 682.754 1138.54 682.422 1135.11 681.656C1131.95 680.866 1128.99 679.406 1126.44 677.376C1120.02 681.164 1111.49 682.639 1100.41 682.639H1066.35V658.262H1097.87C1105.5 658.262 1110.94 658.465 1114.15 656.527C1117.85 654.474 1118.95 649.616 1118.95 645.423C1118.95 643.862 1118.95 641.52 1118.77 639.178L1118.46 635.679C1118.46 634.609 1118.25 633.626 1118.17 632.787H1069.01L1077.86 608.439L1137.92 608.497Z" fill="#1D1D1B"/>
<path d="M1259.86 651.354C1259.79 652.939 1260.11 654.515 1260.78 655.952C1261.13 656.681 1261.69 657.291 1262.38 657.701C1263.08 658.115 1263.88 658.312 1264.68 658.265H1279.95V682.642H1264.68C1261.77 682.74 1258.86 682.477 1256.01 681.861C1253.27 681.196 1250.61 680.225 1248.09 678.97C1246.34 680.048 1244.52 681.014 1242.65 681.861C1240.79 682.529 1238.84 682.891 1236.87 682.931H1160.85V658.555H1183.55C1181.69 650.085 1181.32 641.358 1182.45 632.761C1183.35 624.676 1184.95 616.684 1187.25 608.876H1259.86V651.354ZM1220.5 583.517C1220.59 585.162 1220.29 586.801 1219.62 588.308C1218.96 589.815 1217.95 591.145 1216.68 592.192C1214.26 594.337 1211.13 595.52 1207.89 595.52C1204.65 595.52 1201.53 594.337 1199.1 592.192C1197.84 591.142 1196.85 589.809 1196.21 588.299C1195.56 586.793 1195.29 585.153 1195.4 583.517C1195.4 580.188 1196.73 576.996 1199.08 574.642C1201.43 572.288 1204.62 570.967 1207.95 570.967C1211.28 570.967 1214.47 572.288 1216.82 574.642C1219.18 576.996 1220.5 580.188 1220.5 583.517ZM1204.42 632.848C1203.79 636.39 1203.45 639.979 1203.41 643.576C1203.41 649.793 1205.72 653.494 1209.43 655.547C1213.97 657.577 1218.92 658.508 1223.88 658.265H1230.45C1231.3 658.248 1232.12 657.956 1232.79 657.436C1233.46 656.915 1233.95 656.192 1234.18 655.374C1234.72 653.633 1234.99 651.82 1234.99 649.995V632.646L1204.42 632.848ZM1247.8 583.517C1247.88 585.162 1247.58 586.801 1246.92 588.308C1246.26 589.815 1245.25 591.145 1243.98 592.192C1241.55 594.337 1238.43 595.52 1235.19 595.52C1231.95 595.52 1228.83 594.337 1226.4 592.192C1225.14 591.139 1224.16 589.803 1223.51 588.296C1222.87 586.79 1222.59 585.153 1222.7 583.517C1222.7 580.188 1224.02 576.996 1226.37 574.642C1228.73 572.288 1231.92 570.967 1235.25 570.967C1238.58 570.967 1241.77 572.288 1244.12 574.642C1246.48 576.996 1247.8 580.188 1247.8 583.517Z" fill="#1D1D1B"/>
<path d="M1325.07 649.707C1324.97 651.549 1325.18 653.394 1325.67 655.172C1325.91 656.098 1326.46 656.913 1327.23 657.48C1328 658.044 1328.94 658.321 1329.9 658.266H1345.13V682.643H1334.81C1327.14 683.033 1319.49 681.556 1312.52 678.334C1305.58 681.559 1297.95 683.039 1290.31 682.643H1278.97V658.266H1295.23C1296.03 658.313 1296.84 658.116 1297.54 657.706C1298.24 657.295 1298.81 656.685 1299.16 655.953C1299.8 654.507 1300.11 652.934 1300.05 651.355V616.887L1325.07 608.501V649.707ZM1311.42 583.749C1311.49 585.391 1311.19 587.028 1310.53 588.535C1309.87 590.038 1308.86 591.371 1307.6 592.424C1305.17 594.549 1302.04 595.723 1298.81 595.723C1295.58 595.723 1292.45 594.549 1290.02 592.424C1288.77 591.368 1287.78 590.035 1287.13 588.529C1286.49 587.019 1286.21 585.383 1286.32 583.749C1286.32 580.421 1287.64 577.228 1289.99 574.874C1292.35 572.521 1295.54 571.199 1298.87 571.199C1302.2 571.199 1305.39 572.521 1307.74 574.874C1310.09 577.228 1311.42 580.421 1311.42 583.749ZM1338.83 583.749C1338.91 585.391 1338.6 587.028 1337.94 588.535C1337.28 590.038 1336.28 591.371 1335.01 592.424C1332.58 594.549 1329.46 595.723 1326.22 595.723C1322.99 595.723 1319.87 594.549 1317.43 592.424C1316.18 591.365 1315.2 590.029 1314.56 588.523C1313.91 587.016 1313.63 585.383 1313.73 583.749C1313.73 580.421 1315.05 577.228 1317.41 574.874C1319.76 572.521 1322.95 571.199 1326.28 571.199C1329.61 571.199 1332.8 572.521 1335.16 574.874C1337.51 577.228 1338.83 580.421 1338.83 583.749Z" fill="#1D1D1B"/>
<path d="M1343.22 682.64V658.264H1392.12V682.64H1343.22Z" fill="#1D1D1B"/>
<path d="M1369.25 682.64V658.264H1418.12V682.64H1369.25Z" fill="#1D1D1B"/>
<path d="M1554.89 643.283C1554.97 648.126 1554.61 652.967 1553.8 657.741C1552.94 662.582 1551.02 667.174 1548.19 671.187C1541.33 679.082 1531.41 681.626 1520.57 681.626C1511.81 681.473 1503.28 678.836 1495.96 674.021C1488.94 679.625 1480.22 682.684 1471.24 682.696H1457.3C1453.13 682.572 1449.02 681.586 1445.24 679.804C1442.97 680.788 1440.62 681.571 1438.22 682.147C1435.72 682.572 1433.2 682.765 1430.67 682.725H1415.11V658.348H1430.79C1434.49 658.348 1435.7 655.254 1435.99 652.218V616.767L1460.31 608.381V660.604C1463.79 661.451 1467.38 661.752 1470.95 661.5C1472.75 661.46 1474.52 661.009 1476.11 660.182C1477.71 659.355 1479.1 658.175 1480.17 656.729C1482.2 653.606 1483.07 648.228 1483.07 640.652V616.767L1507.56 608.381V641.808C1507.7 647.328 1507.06 652.837 1505.65 658.175C1509.34 660.248 1513.48 661.39 1517.71 661.5C1519.8 661.711 1521.92 661.382 1523.85 660.549C1525.78 659.713 1527.47 658.398 1528.75 656.729C1529.93 654.795 1530.49 652.542 1530.34 650.281V616.767L1554.75 608.381L1554.89 643.283Z" fill="#1D1D1B"/>
<path d="M1681.69 654.391C1681.81 658.142 1681.19 661.881 1679.86 665.388C1678.53 668.899 1676.51 672.108 1673.94 674.835C1670.43 678.01 1666.14 680.196 1661.5 681.168C1656.76 682.241 1651.91 682.735 1647.05 682.643H1633.8C1633.84 685.294 1634.68 687.874 1636.2 690.045L1616.34 704.503C1613.76 701.777 1611.75 698.567 1610.42 695.057C1609.09 691.549 1608.47 687.81 1608.59 684.06V682.701H1589.3V658.324H1608.59V573.281L1633.69 566.948V658.324H1651.96C1652.92 658.373 1653.86 658.096 1654.62 657.532C1655.39 656.968 1655.95 656.155 1656.18 655.23C1656.68 653.455 1656.88 651.607 1656.79 649.765V551.276L1681.8 542.977L1681.69 654.391Z" fill="#1D1D1B"/>
<path d="M1739.09 672.318C1739.06 674.255 1739.22 676.193 1739.58 678.101C1739.74 679.92 1740.43 681.649 1741.58 683.075L1721.71 697.533C1719.13 694.8 1717.12 691.582 1715.79 688.069C1714.46 684.555 1713.84 680.814 1713.96 677.06V551.187L1739.09 543.004V672.318Z" fill="#1D1D1B"/>
<path d="M1920.3 608.588C1923.28 618.879 1925.1 629.471 1925.74 640.165V649.707C1925.65 651.549 1925.85 653.394 1926.35 655.172C1926.58 656.095 1927.13 656.904 1927.89 657.468C1928.66 658.035 1929.59 658.315 1930.54 658.266H1946.13V682.643H1930.54C1927.07 682.744 1923.6 682.385 1920.22 681.573C1916.88 680.619 1913.74 679.06 1910.96 676.975C1902.89 681.151 1893.86 683.146 1884.77 682.758H1872.62C1872.53 687.096 1871.92 691.404 1870.8 695.597C1869.53 700.276 1867.15 704.582 1863.87 708.147C1860.58 711.709 1856.48 714.428 1851.92 716.07C1845.56 718.239 1838.85 719.219 1832.14 718.962L1830.23 698.229C1836.36 698.229 1840.78 696.754 1843.47 693.747C1846.16 690.739 1847.61 686.055 1847.61 679.115V608.588H1920.3ZM1872.71 658.266H1881.76C1887.13 658.616 1892.51 657.786 1897.52 655.837C1901.54 653.784 1904.05 650.054 1904.05 643.577C1904 639.979 1903.66 636.394 1903.04 632.849H1872.71V658.266Z" fill="#1D1D1B"/>
<path d="M1991.24 654.387C1991.36 658.137 1990.74 661.876 1989.41 665.384C1988.08 668.894 1986.07 672.104 1983.49 674.831C1980.72 677.696 1977.31 679.868 1973.54 681.163C1969.6 682.311 1965.5 682.809 1961.4 682.638H1945.15V658.262H1961.4C1962.35 658.311 1963.29 658.033 1964.06 657.469C1964.83 656.905 1965.38 656.09 1965.62 655.167C1966.11 653.392 1966.32 651.544 1966.23 649.702V551.213L1991.24 542.914V654.387Z" fill="#1D1D1B"/>
<path d="M2048.61 649.702C2048.52 651.544 2048.73 653.392 2049.22 655.167C2049.43 656.081 2049.96 656.891 2050.71 657.458C2051.46 658.022 2052.39 658.308 2053.33 658.262H2068.71V682.638H2053.24C2045.39 682.884 2037.74 680.134 2031.84 674.946C2029.09 672.295 2026.93 669.094 2025.49 665.551C2024.06 662.009 2023.38 658.207 2023.51 654.387V549.247L2048.61 542.914V649.702Z" fill="#1D1D1B"/>
<path d="M2110.58 632.844C2110.58 634.492 2110.29 636.169 2110.09 637.818C2109.86 639.825 2109.76 641.843 2109.77 643.861C2109.77 649.413 2111.39 653.115 2114.69 655.052C2117.98 656.989 2123.36 658.262 2131.26 658.262H2163.29V682.638H2067.7V658.262H2090.48C2089.2 652.681 2088.7 646.949 2088.98 641.23C2089.18 635.418 2089.75 629.623 2090.68 623.88C2091.4 618.637 2092.51 613.456 2094.01 608.381H2152.16L2144.81 632.728L2110.58 632.844Z" fill="#1D1D1B"/>
<path d="M3534.77 490.811V474.211H3493.62V485.041V490.811V582.181V627.331H3534.77V490.811Z" fill="#222250"/>
<path d="M3340.5 490.811V485.041V474.211H3299.35V490.811V627.331H3340.5V582.181V490.811Z" fill="#222250"/>
<path d="M3493.62 490.81V209.81C3493.62 189.505 3485.55 170.032 3471.19 155.674C3456.84 141.316 3437.36 133.25 3417.06 133.25C3396.75 133.25 3377.28 141.316 3362.92 155.674C3348.56 170.032 3340.5 189.505 3340.5 209.81V668.43L3417.06 744.99L3493.62 668.43V490.81Z" fill="#44A5DD"/>
<path d="M3417.06 121.42C3450.59 121.42 3477.77 94.2392 3477.77 60.71C3477.77 27.1808 3450.59 0 3417.06 0C3383.53 0 3356.35 27.1808 3356.35 60.71C3356.35 94.2392 3383.53 121.42 3417.06 121.42Z" fill="#44A5DD"/>
<path d="M3299.35 474.21V306.99C3299.35 286.685 3291.28 267.212 3276.92 252.854C3262.57 238.496 3243.09 230.43 3222.79 230.43C3202.48 230.43 3183.01 238.496 3168.65 252.854C3154.29 267.212 3146.23 286.685 3146.23 306.99V474.21L3299.35 627.33V474.21Z" fill="#30358C"/>
<path d="M3687.89 474.21V306.99C3687.89 296.936 3685.91 286.981 3682.06 277.692C3678.21 268.403 3672.57 259.963 3665.46 252.854C3658.35 245.745 3649.91 240.105 3640.63 236.258C3631.34 232.41 3621.38 230.43 3611.33 230.43C3601.27 230.43 3591.32 232.41 3582.03 236.258C3572.74 240.105 3564.3 245.745 3557.19 252.854C3550.08 259.963 3544.44 268.403 3540.6 277.692C3536.75 286.981 3534.77 296.936 3534.77 306.99V627.33L3687.89 474.21Z" fill="#4972B7"/>
<path d="M3282.75 167.612C3288.12 134.516 3265.65 103.332 3232.55 97.9595C3199.46 92.5873 3168.27 115.062 3162.9 148.158C3157.53 181.254 3180 212.439 3213.1 217.811C3246.19 223.183 3277.38 200.709 3282.75 167.612Z" fill="#30358C"/>
<path d="M3629.86 215.632C3661.79 205.399 3679.38 171.22 3669.15 139.29C3658.91 107.361 3624.74 89.7717 3592.81 100.005C3560.88 110.238 3543.29 144.418 3553.52 176.347C3563.75 208.277 3597.93 225.865 3629.86 215.632Z" fill="#4972B7"/>
</svg>
