<svg width="1056" height="982" viewBox="0 0 1056 982" fill="none" xmlns="http://www.w3.org/2000/svg">
<path d="M277.02 927.16H0V931.71H277.02V927.16Z" fill="#B2B2B2"/>
<path d="M277.02 945.61H0V950.16H277.02V945.61Z" fill="#B2B2B2"/>
<path d="M277.02 964.06H0V968.61H277.02V964.06Z" fill="#B2B2B2"/>
<path d="M1051.04 927.16H774.02V931.71H1051.04V927.16Z" fill="#B2B2B2"/>
<path d="M1051.04 945.61H774.02V950.16H1051.04V945.61Z" fill="#B2B2B2"/>
<path d="M1051.04 964.06H774.02V968.61H1051.04V964.06Z" fill="#B2B2B2"/>
<path d="M643.23 490.81V474.21H602.08V485.04V490.81V582.18V627.33H643.23L796.35 474.21L643.23 627.33V490.81Z" fill="#222250"/>
<path d="M448.961 490.81V485.04V474.21H407.811V490.81V627.33H448.961V582.18V490.81Z" fill="#222250"/>
<path d="M602.081 490.81V209.81C602.081 189.505 594.015 170.032 579.657 155.674C565.299 141.316 545.826 133.25 525.521 133.25C505.216 133.25 485.743 141.316 471.385 155.674C457.027 170.032 448.961 189.505 448.961 209.81V668.43L525.521 744.99L602.081 668.43V490.81Z" fill="#44A5DD"/>
<path d="M525.521 121.42C559.05 121.42 586.231 94.2392 586.231 60.71C586.231 27.1808 559.05 0 525.521 0C491.991 0 464.811 27.1808 464.811 60.71C464.811 94.2392 491.991 121.42 525.521 121.42Z" fill="#44A5DD"/>
<path d="M407.809 474.21V306.99C407.809 286.685 399.743 267.212 385.386 252.854C371.028 238.496 351.554 230.43 331.249 230.43C310.944 230.43 291.471 238.496 277.113 252.854C262.756 267.212 254.689 286.685 254.689 306.99V474.21L407.809 627.33V474.21Z" fill="#30358C"/>
<path d="M796.35 474.21V306.99C796.35 296.936 794.37 286.981 790.523 277.692C786.675 268.403 781.036 259.963 773.927 252.854C766.817 245.745 758.377 240.105 749.089 236.258C739.8 232.41 729.845 230.43 719.791 230.43C709.737 230.43 699.781 232.41 690.492 236.258C681.204 240.105 672.764 245.745 665.654 252.854C658.545 259.963 652.906 268.403 649.058 277.692C645.211 286.981 643.23 296.936 643.23 306.99V627.33L796.35 474.21Z" fill="#4972B7"/>
<path d="M391.213 167.612C396.586 134.516 374.111 103.332 341.015 97.9595C307.919 92.5873 276.734 115.062 271.362 148.158C265.99 181.254 288.464 212.439 321.56 217.811C354.656 223.183 385.841 200.709 391.213 167.612Z" fill="#30358C"/>
<path d="M738.326 215.632C770.255 205.399 787.843 171.22 777.61 139.29C767.377 107.361 733.198 89.7722 701.269 100.005C669.339 110.238 651.751 144.418 661.984 176.347C672.217 208.277 706.396 225.865 738.326 215.632Z" fill="#4972B7"/>
<path d="M45.5656 765.132V799.266H62.6324C64.9714 799.266 67.1717 798.83 69.2332 797.957C71.2947 797.046 73.0985 795.817 74.6446 794.271C76.1907 792.724 77.3998 790.921 78.272 788.859C79.1838 786.758 79.6397 784.538 79.6397 782.199C79.6397 779.86 79.1838 777.66 78.272 775.598C77.3998 773.497 76.1907 771.673 74.6446 770.127C73.0985 768.581 71.2947 767.372 69.2332 766.5C67.1717 765.588 64.9714 765.132 62.6324 765.132H45.5656ZM45.5656 833.34H28.4988V748.065H62.6324C65.7643 748.065 68.7773 748.482 71.6713 749.314C74.5653 750.107 77.2611 751.257 79.7587 752.763C82.2959 754.23 84.5953 756.014 86.6567 758.115C88.7579 760.177 90.5419 762.476 92.0087 765.013C93.5152 767.55 94.6649 770.266 95.4577 773.16C96.2903 776.054 96.7065 779.067 96.7065 782.199C96.7065 785.133 96.3299 787.987 95.5767 790.762C94.8631 793.537 93.8125 796.173 92.425 798.671C91.0771 801.169 89.412 803.468 87.4298 805.569C85.4476 807.67 83.2275 809.494 80.7696 811.04L90.2247 833.34H72.0875L64.6543 816.154L45.5656 816.273V833.34ZM130.84 817.76C131.474 817.958 132.109 818.097 132.743 818.176C133.377 818.216 134.012 818.235 134.646 818.235C136.232 818.235 137.758 818.017 139.225 817.581C140.692 817.145 142.059 816.531 143.328 815.738C144.636 814.905 145.786 813.914 146.777 812.765C147.808 811.575 148.64 810.267 149.275 808.84L161.168 820.792C159.661 822.933 157.917 824.856 155.935 826.561C153.992 828.265 151.871 829.712 149.572 830.902C147.312 832.091 144.914 832.983 142.377 833.578C139.879 834.212 137.302 834.529 134.646 834.529C130.166 834.529 125.944 833.697 121.98 832.032C118.055 830.367 114.606 828.047 111.633 825.074C108.699 822.101 106.38 818.572 104.675 814.489C102.97 810.366 102.118 805.847 102.118 800.931C102.118 795.896 102.97 791.297 104.675 787.135C106.38 782.972 108.699 779.424 111.633 776.49C114.606 773.557 118.055 771.277 121.98 769.652C125.944 768.026 130.166 767.213 134.646 767.213C137.302 767.213 139.899 767.531 142.436 768.165C144.973 768.799 147.372 769.711 149.631 770.9C151.931 772.09 154.072 773.557 156.054 775.301C158.036 777.006 159.78 778.928 161.287 781.069L130.84 817.76ZM139.165 784.28C138.412 784.003 137.659 783.824 136.906 783.745C136.192 783.666 135.439 783.626 134.646 783.626C132.426 783.626 130.325 784.042 128.343 784.875C126.4 785.668 124.695 786.817 123.228 788.324C121.801 789.83 120.671 791.654 119.839 793.795C119.006 795.896 118.59 798.275 118.59 800.931C118.59 801.525 118.61 802.199 118.65 802.953C118.729 803.706 118.828 804.479 118.947 805.272C119.105 806.025 119.284 806.758 119.482 807.472C119.68 808.186 119.938 808.82 120.255 809.375L139.165 784.28ZM224.678 782.318L212.784 794.271C212.19 792.606 211.377 791.119 210.346 789.811C209.316 788.463 208.146 787.333 206.838 786.421C205.569 785.509 204.182 784.815 202.675 784.34C201.169 783.864 199.623 783.626 198.037 783.626C195.817 783.626 193.716 784.082 191.733 784.994C189.791 785.906 188.086 787.194 186.619 788.859C185.192 790.485 184.062 792.427 183.23 794.687C182.397 796.947 181.981 799.444 181.981 802.18C181.981 804.4 182.397 806.481 183.23 808.424C184.062 810.366 185.192 812.071 186.619 813.538C188.086 815.004 189.791 816.154 191.733 816.987C193.716 817.819 195.817 818.235 198.037 818.235C199.623 818.235 201.149 818.017 202.616 817.581C204.083 817.145 205.45 816.531 206.719 815.738C208.027 814.905 209.177 813.914 210.168 812.765C211.199 811.575 212.031 810.267 212.666 808.84L224.559 820.792C223.052 822.933 221.308 824.856 219.326 826.561C217.383 828.265 215.262 829.712 212.963 830.902C210.703 832.091 208.305 832.983 205.767 833.578C203.27 834.212 200.693 834.529 198.037 834.529C193.557 834.529 189.335 833.697 185.371 832.032C181.446 830.327 177.997 828.008 175.023 825.074C172.09 822.14 169.771 818.711 168.066 814.786C166.361 810.862 165.509 806.659 165.509 802.18C165.509 797.303 166.361 792.744 168.066 788.502C169.771 784.26 172.09 780.574 175.023 777.442C177.997 774.27 181.446 771.773 185.371 769.949C189.335 768.125 193.557 767.213 198.037 767.213C200.693 767.213 203.29 767.55 205.827 768.224C208.404 768.898 210.842 769.889 213.141 771.198C215.48 772.466 217.621 774.032 219.564 775.896C221.546 777.759 223.251 779.9 224.678 782.318ZM248.88 833.34H232.646V769.652H236.571L241.923 777.204C244.539 774.825 247.513 773.002 250.843 771.733C254.173 770.425 257.622 769.771 261.19 769.771H275.521V785.945H261.19C259.485 785.945 257.88 786.262 256.373 786.897C254.867 787.531 253.558 788.403 252.448 789.513C251.338 790.623 250.466 791.932 249.832 793.438C249.198 794.945 248.88 796.55 248.88 798.255V833.34ZM329.398 825.907C328.089 827.096 326.682 828.226 325.176 829.296C323.709 830.327 322.163 831.239 320.537 832.032C318.912 832.785 317.227 833.379 315.483 833.816C313.778 834.291 312.033 834.529 310.25 834.529C306.325 834.529 302.638 833.835 299.189 832.448C295.74 831.06 292.707 829.098 290.09 826.561C287.514 823.984 285.472 820.872 283.965 817.225C282.499 813.538 281.765 809.415 281.765 804.856V769.652H297.94V804.856C297.94 806.996 298.257 808.919 298.891 810.624C299.565 812.289 300.457 813.696 301.567 814.846C302.677 815.996 303.966 816.868 305.433 817.462C306.939 818.057 308.545 818.354 310.25 818.354C311.915 818.354 313.481 817.978 314.947 817.225C316.454 816.432 317.762 815.401 318.872 814.132C319.982 812.864 320.854 811.436 321.489 809.851C322.123 808.225 322.44 806.56 322.44 804.856V769.652H338.674V833.34H334.75L329.398 825.907ZM370.251 752.347C370.251 753.853 369.954 755.261 369.359 756.569C368.804 757.877 368.031 759.027 367.04 760.018C366.049 760.97 364.879 761.743 363.531 762.337C362.223 762.892 360.816 763.17 359.309 763.17C357.803 763.17 356.375 762.892 355.028 762.337C353.719 761.743 352.57 760.97 351.578 760.018C350.627 759.027 349.854 757.877 349.259 756.569C348.704 755.261 348.427 753.853 348.427 752.347C348.427 750.88 348.704 749.493 349.259 748.184C349.854 746.836 350.627 745.687 351.578 744.735C352.57 743.744 353.719 742.971 355.028 742.416C356.375 741.821 357.803 741.524 359.309 741.524C360.816 741.524 362.223 741.821 363.531 742.416C364.879 742.971 366.049 743.744 367.04 744.735C368.031 745.687 368.804 746.836 369.359 748.184C369.954 749.493 370.251 750.88 370.251 752.347ZM367.456 833.34H351.103V769.652H367.456V833.34ZM411.818 833.34C407.893 833.34 404.206 832.606 400.757 831.14C397.308 829.633 394.275 827.591 391.659 825.015C389.082 822.398 387.04 819.365 385.534 815.916C384.067 812.467 383.333 808.78 383.333 804.856V785.945H375.424V769.771H383.333V744.319H399.508V769.771H424.127V785.945H399.508V804.856C399.508 806.56 399.825 808.166 400.46 809.672C401.094 811.139 401.966 812.428 403.076 813.538C404.186 814.648 405.494 815.54 407.001 816.214C408.507 816.848 410.113 817.165 411.818 817.165H424.127V833.34H411.818ZM514.278 833.34H498.103V792.903C498.103 791.793 497.885 790.742 497.449 789.751C497.053 788.76 496.478 787.888 495.724 787.135C494.971 786.381 494.099 785.807 493.108 785.41C492.117 784.974 491.066 784.756 489.956 784.756C488.846 784.756 487.796 784.974 486.805 785.41C485.853 785.807 485.001 786.381 484.248 787.135C483.534 787.888 482.959 788.76 482.523 789.751C482.127 790.742 481.928 791.793 481.928 792.903V833.34H465.694V792.903C465.694 791.793 465.476 790.742 465.04 789.751C464.643 788.76 464.069 787.888 463.315 787.135C462.562 786.381 461.69 785.807 460.699 785.41C459.708 784.974 458.657 784.756 457.547 784.756C456.437 784.756 455.387 784.974 454.395 785.41C453.444 785.807 452.592 786.381 451.838 787.135C451.125 787.888 450.55 788.76 450.114 789.751C449.717 790.742 449.519 791.793 449.519 792.903V833.34H433.285V769.652H437.21L441.61 774.528C443.87 772.625 446.348 771.158 449.044 770.127C451.779 769.057 454.614 768.522 457.547 768.522C460.521 768.522 463.415 769.077 466.229 770.187C469.084 771.297 471.581 773.22 473.722 775.955C474.713 774.607 475.843 773.457 477.112 772.506C478.38 771.555 479.708 770.781 481.096 770.187C482.523 769.592 483.99 769.176 485.496 768.938C487.003 768.66 488.489 768.522 489.956 768.522C493.326 768.522 496.478 769.156 499.411 770.425C502.385 771.693 504.962 773.438 507.142 775.658C509.362 777.838 511.106 780.415 512.375 783.388C513.644 786.362 514.278 789.533 514.278 792.903V833.34ZM551.504 817.76C552.138 817.958 552.772 818.097 553.407 818.176C554.041 818.216 554.675 818.235 555.31 818.235C556.895 818.235 558.422 818.017 559.888 817.581C561.355 817.145 562.723 816.531 563.992 815.738C565.3 814.905 566.45 813.914 567.441 812.765C568.471 811.575 569.304 810.267 569.938 808.84L581.831 820.792C580.325 822.933 578.581 824.856 576.598 826.561C574.656 828.265 572.535 829.712 570.236 830.902C567.976 832.091 565.577 832.983 563.04 833.578C560.543 834.212 557.966 834.529 555.31 834.529C550.83 834.529 546.608 833.697 542.643 832.032C538.719 830.367 535.269 828.047 532.296 825.074C529.362 822.101 527.043 818.572 525.339 814.489C523.634 810.366 522.782 805.847 522.782 800.931C522.782 795.896 523.634 791.297 525.339 787.135C527.043 782.972 529.362 779.424 532.296 776.49C535.269 773.557 538.719 771.277 542.643 769.652C546.608 768.026 550.83 767.213 555.31 767.213C557.966 767.213 560.562 767.531 563.1 768.165C565.637 768.799 568.035 769.711 570.295 770.9C572.594 772.09 574.735 773.557 576.717 775.301C578.7 777.006 580.444 778.928 581.95 781.069L551.504 817.76ZM559.829 784.28C559.076 784.003 558.323 783.824 557.569 783.745C556.856 783.666 556.102 783.626 555.31 783.626C553.089 783.626 550.988 784.042 549.006 784.875C547.064 785.668 545.359 786.817 543.892 788.324C542.465 789.83 541.335 791.654 540.502 793.795C539.67 795.896 539.254 798.275 539.254 800.931C539.254 801.525 539.274 802.199 539.313 802.953C539.392 803.706 539.492 804.479 539.61 805.272C539.769 806.025 539.947 806.758 540.146 807.472C540.344 808.186 540.602 808.82 540.919 809.375L559.829 784.28ZM606.391 833.34H590.157V769.652H594.081L599.433 775.836C602.05 773.457 605.003 771.634 608.294 770.365C611.624 769.057 615.093 768.403 618.7 768.403C622.586 768.403 626.253 769.156 629.702 770.663C633.151 772.129 636.164 774.171 638.741 776.788C641.317 779.364 643.339 782.397 644.806 785.886C646.313 789.335 647.066 793.022 647.066 796.947V833.34H630.832V796.947C630.832 795.282 630.514 793.716 629.88 792.249C629.246 790.742 628.374 789.434 627.264 788.324C626.154 787.214 624.865 786.342 623.398 785.707C621.931 785.073 620.366 784.756 618.7 784.756C616.996 784.756 615.39 785.073 613.884 785.707C612.377 786.342 611.069 787.214 609.959 788.324C608.849 789.434 607.977 790.742 607.342 792.249C606.708 793.716 606.391 795.282 606.391 796.947V833.34ZM689.763 833.34C685.838 833.34 682.151 832.606 678.702 831.14C675.253 829.633 672.22 827.591 669.603 825.015C667.027 822.398 664.985 819.365 663.478 815.916C662.012 812.467 661.278 808.78 661.278 804.856V785.945H653.369V769.771H661.278V744.319H677.453V769.771H702.072V785.945H677.453V804.856C677.453 806.56 677.77 808.166 678.404 809.672C679.039 811.139 679.911 812.428 681.021 813.538C682.131 814.648 683.439 815.54 684.946 816.214C686.452 816.848 688.058 817.165 689.763 817.165H702.072V833.34H689.763ZM825.762 810.326C825.762 813.657 825.127 816.808 823.859 819.782C822.59 822.715 820.846 825.272 818.626 827.453C816.445 829.633 813.868 831.358 810.895 832.626C807.961 833.895 804.81 834.529 801.44 834.529C798.427 834.529 795.533 834.014 792.758 832.983C789.983 831.913 787.465 830.367 785.206 828.345C782.986 830.367 780.488 831.913 777.713 832.983C774.978 834.014 772.084 834.529 769.031 834.529C765.661 834.529 762.51 833.895 759.576 832.626C756.642 831.358 754.065 829.633 751.845 827.453C749.665 825.272 747.94 822.715 746.672 819.782C745.403 816.808 744.769 813.657 744.769 810.326V769.771H761.003V810.326C761.003 811.436 761.201 812.487 761.598 813.478C762.034 814.43 762.609 815.282 763.322 816.035C764.075 816.749 764.928 817.324 765.879 817.76C766.87 818.156 767.921 818.354 769.031 818.354C770.141 818.354 771.192 818.156 772.183 817.76C773.174 817.324 774.046 816.749 774.799 816.035C775.552 815.282 776.127 814.43 776.524 813.478C776.96 812.487 777.178 811.436 777.178 810.326V769.771H793.353V810.326C793.353 811.436 793.571 812.487 794.007 813.478C794.443 814.43 795.018 815.282 795.731 816.035C796.485 816.749 797.337 817.324 798.288 817.76C799.279 818.156 800.33 818.354 801.44 818.354C802.55 818.354 803.601 818.156 804.592 817.76C805.583 817.324 806.435 816.749 807.149 816.035C807.902 815.282 808.497 814.43 808.933 813.478C809.369 812.487 809.587 811.436 809.587 810.326V769.771H825.762V810.326ZM899.083 800.931C899.083 805.688 898.231 810.128 896.526 814.251C894.822 818.335 892.503 821.883 889.569 824.896C886.635 827.869 883.186 830.228 879.222 831.972C875.297 833.677 871.075 834.529 866.555 834.529C862.076 834.529 857.854 833.677 853.889 831.972C849.964 830.228 846.515 827.869 843.542 824.896C840.608 821.883 838.289 818.335 836.585 814.251C834.88 810.128 834.027 805.688 834.027 800.931C834.027 796.094 834.88 791.614 836.585 787.491C838.289 783.368 840.608 779.82 843.542 776.847C846.515 773.834 849.964 771.475 853.889 769.771C857.854 768.066 862.076 767.213 866.555 767.213C871.075 767.213 875.297 768.026 879.222 769.652C883.186 771.237 886.635 773.517 889.569 776.49C892.503 779.424 894.822 782.972 896.526 787.135C898.231 791.258 899.083 795.856 899.083 800.931ZM882.73 800.931C882.73 798.314 882.294 795.955 881.422 793.854C880.589 791.714 879.44 789.89 877.973 788.383C876.506 786.837 874.782 785.668 872.799 784.875C870.857 784.042 868.776 783.626 866.555 783.626C864.335 783.626 862.234 784.042 860.252 784.875C858.309 785.668 856.605 786.837 855.138 788.383C853.711 789.89 852.581 791.714 851.748 793.854C850.916 795.955 850.5 798.314 850.5 800.931C850.5 803.389 850.916 805.668 851.748 807.769C852.581 809.871 853.711 811.694 855.138 813.24C856.605 814.786 858.309 816.015 860.252 816.927C862.234 817.799 864.335 818.235 866.555 818.235C868.776 818.235 870.857 817.819 872.799 816.987C874.782 816.154 876.506 814.985 877.973 813.478C879.44 811.972 880.589 810.148 881.422 808.007C882.294 805.866 882.73 803.508 882.73 800.931ZM924.297 833.34H908.063V769.652H911.988L917.34 777.204C919.956 774.825 922.929 773.002 926.259 771.733C929.59 770.425 933.039 769.771 936.607 769.771H950.938V785.945H936.607C934.902 785.945 933.296 786.262 931.79 786.897C930.283 787.531 928.975 788.403 927.865 789.513C926.755 790.623 925.883 791.932 925.249 793.438C924.614 794.945 924.297 796.55 924.297 798.255V833.34ZM974.843 833.34H958.49V744.319H974.843V833.34ZM1048.82 833.34H1044.89L1038.59 824.598C1037.04 825.986 1035.4 827.294 1033.66 828.523C1031.95 829.712 1030.15 830.763 1028.24 831.675C1026.34 832.547 1024.38 833.241 1022.36 833.756C1020.37 834.271 1018.35 834.529 1016.29 834.529C1011.81 834.529 1007.59 833.697 1003.62 832.032C999.7 830.327 996.251 827.988 993.278 825.015C990.344 822.002 988.025 818.453 986.32 814.37C984.616 810.247 983.763 805.767 983.763 800.931C983.763 796.134 984.616 791.674 986.32 787.551C988.025 783.428 990.344 779.86 993.278 776.847C996.251 773.834 999.7 771.475 1003.62 769.771C1007.59 768.066 1011.81 767.213 1016.29 767.213C1017.72 767.213 1019.19 767.332 1020.69 767.57C1022.24 767.808 1023.72 768.205 1025.15 768.76C1026.62 769.275 1027.99 769.969 1029.25 770.841C1030.52 771.713 1031.59 772.783 1032.47 774.052V744.319H1048.82V833.34ZM1032.47 800.931C1032.47 798.711 1032.03 796.57 1031.16 794.508C1030.33 792.407 1029.18 790.564 1027.71 788.978C1026.24 787.353 1024.52 786.064 1022.54 785.113C1020.59 784.122 1018.51 783.626 1016.29 783.626C1014.07 783.626 1011.97 784.023 1009.99 784.815C1008.05 785.608 1006.34 786.758 1004.87 788.264C1003.45 789.731 1002.32 791.535 1001.48 793.676C1000.65 795.817 1000.24 798.235 1000.24 800.931C1000.24 803.27 1000.65 805.49 1001.48 807.591C1002.32 809.692 1003.45 811.536 1004.87 813.121C1006.34 814.707 1008.05 815.956 1009.99 816.868C1011.97 817.78 1014.07 818.235 1016.29 818.235C1018.51 818.235 1020.59 817.76 1022.54 816.808C1024.52 815.817 1026.24 814.529 1027.71 812.943C1029.18 811.318 1030.33 809.474 1031.16 807.413C1032.03 805.311 1032.47 803.151 1032.47 800.931Z" fill="#1D1D1B"/>
<path d="M336.059 942.97C336.783 945.52 337.314 948.121 337.649 950.75C338.053 953.592 338.019 956.479 337.549 959.31C337.154 961.874 335.86 964.213 333.899 965.91C332.462 966.992 330.802 967.74 329.039 968.1C327.304 968.47 325.533 968.641 323.759 968.61H319.519C319.495 970.11 319.286 971.601 318.899 973.05C318.459 974.668 317.636 976.156 316.499 977.388C315.363 978.621 313.946 979.561 312.369 980.13C310.169 980.879 307.851 981.218 305.529 981.13L304.869 973.96C306.979 973.96 308.509 973.45 309.449 972.41C310.389 971.37 310.869 969.75 310.869 967.35V942.93L336.059 942.97ZM319.599 960.18H322.719C324.575 960.303 326.436 960.016 328.169 959.34C329.559 958.63 330.429 957.34 330.429 955.1C330.415 953.856 330.298 952.615 330.079 951.39H319.599V960.18Z" fill="#1D1D1B"/>
<path d="M357.781 965.04C357.771 965.71 357.828 966.38 357.951 967.04C358.014 967.668 358.257 968.266 358.651 968.76L351.771 973.76C349.977 971.847 349.017 969.3 349.101 966.68V923.15L357.781 920.32V965.04Z" fill="#1D1D1B"/>
<path d="M393.52 942.97C393.97 945.26 394.39 947.85 394.67 950.45C394.77 951.76 394.84 953.04 394.84 954.32C394.841 955.562 394.748 956.802 394.56 958.03C394.559 958.549 394.694 959.059 394.95 959.51C395.078 959.731 395.267 959.911 395.493 960.029C395.72 960.148 395.975 960.2 396.23 960.18H401.72V968.61H396.16C394.947 968.65 393.734 968.535 392.55 968.27C391.455 967.997 390.432 967.492 389.55 966.79C387.33 968.1 384.38 968.61 380.55 968.61H368.77V960.18H379.67C382.31 960.18 384.19 960.25 385.3 959.58C386.58 958.87 386.96 957.19 386.96 955.74C386.96 955.2 386.96 954.39 386.9 953.58L386.79 952.37C386.79 952 386.72 951.66 386.69 951.37H369.69L372.75 942.95L393.52 942.97Z" fill="#1D1D1B"/>
<path d="M435.689 957.79C435.668 958.338 435.778 958.883 436.009 959.38C436.13 959.632 436.322 959.843 436.563 959.985C436.803 960.128 437.08 960.196 437.359 960.18H442.639V968.61H437.359C436.352 968.644 435.344 968.553 434.359 968.34C433.412 968.11 432.493 967.774 431.619 967.34C431.015 967.713 430.387 968.047 429.739 968.34C429.097 968.571 428.421 968.696 427.739 968.71H401.449V960.28H409.299C408.658 957.351 408.529 954.333 408.919 951.36C409.23 948.564 409.785 945.8 410.579 943.1H435.689V957.79ZM422.079 934.33C422.109 934.899 422.005 935.466 421.776 935.987C421.547 936.508 421.198 936.968 420.759 937.33C419.92 938.072 418.839 938.481 417.719 938.481C416.599 938.481 415.518 938.072 414.679 937.33C414.243 936.967 413.9 936.506 413.678 935.984C413.455 935.463 413.36 934.896 413.399 934.33C413.399 933.179 413.857 932.075 414.67 931.261C415.484 930.447 416.588 929.99 417.739 929.99C418.89 929.99 419.994 930.447 420.808 931.261C421.622 932.075 422.079 933.179 422.079 934.33ZM416.519 951.39C416.301 952.615 416.184 953.856 416.169 955.1C416.169 957.25 416.969 958.53 418.249 959.24C419.819 959.942 421.532 960.264 423.249 960.18H425.519C425.813 960.174 426.097 960.073 426.329 959.893C426.562 959.713 426.73 959.463 426.809 959.18C426.996 958.578 427.09 957.951 427.089 957.32V951.32L416.519 951.39ZM431.519 934.33C431.549 934.899 431.445 935.466 431.216 935.987C430.987 936.508 430.638 936.968 430.199 937.33C429.36 938.072 428.279 938.481 427.159 938.481C426.039 938.481 424.958 938.072 424.119 937.33C423.685 936.966 423.343 936.504 423.121 935.983C422.899 935.462 422.802 934.896 422.839 934.33C422.839 933.179 423.297 932.075 424.11 931.261C424.924 930.447 426.028 929.99 427.179 929.99C428.33 929.99 429.434 930.447 430.248 931.261C431.062 932.075 431.519 933.179 431.519 934.33Z" fill="#1D1D1B"/>
<path d="M458.241 957.22C458.209 957.857 458.28 958.495 458.451 959.11C458.532 959.43 458.722 959.712 458.988 959.908C459.255 960.103 459.581 960.199 459.911 960.18H465.181V968.61H461.611C458.958 968.745 456.312 968.234 453.901 967.12C451.501 968.235 448.864 968.747 446.221 968.61H442.301V960.18H447.921C448.201 960.196 448.48 960.128 448.722 959.986C448.964 959.844 449.159 959.633 449.281 959.38C449.504 958.88 449.61 958.336 449.591 957.79V945.87L458.241 942.97V957.22ZM453.521 934.41C453.547 934.978 453.442 935.544 453.213 936.065C452.984 936.585 452.638 937.046 452.201 937.41C451.359 938.145 450.279 938.551 449.161 938.551C448.043 938.551 446.963 938.145 446.121 937.41C445.687 937.045 445.345 936.584 445.123 936.063C444.9 935.541 444.804 934.975 444.841 934.41C444.841 933.259 445.298 932.155 446.112 931.341C446.926 930.527 448.03 930.07 449.181 930.07C450.332 930.07 451.436 930.527 452.25 931.341C453.063 932.155 453.521 933.259 453.521 934.41ZM463.001 934.41C463.027 934.978 462.922 935.544 462.693 936.065C462.464 936.585 462.118 937.046 461.681 937.41C460.839 938.145 459.759 938.551 458.641 938.551C457.523 938.551 456.443 938.145 455.601 937.41C455.169 937.044 454.828 936.582 454.606 936.061C454.384 935.54 454.286 934.975 454.321 934.41C454.321 933.259 454.778 932.155 455.592 931.341C456.406 930.527 457.51 930.07 458.661 930.07C459.812 930.07 460.916 930.527 461.73 931.341C462.544 932.155 463.001 933.259 463.001 934.41Z" fill="#1D1D1B"/>
<path d="M464.52 968.61V960.18H481.43V968.61H464.52Z" fill="#1D1D1B"/>
<path d="M473.52 968.61V960.18H490.42V968.61H473.52Z" fill="#1D1D1B"/>
<path d="M537.721 955C537.748 956.675 537.621 958.349 537.341 960C537.044 961.674 536.382 963.262 535.401 964.65C533.031 967.38 529.601 968.26 525.851 968.26C522.822 968.207 519.871 967.295 517.341 965.63C514.912 967.568 511.898 968.626 508.791 968.63H503.971C502.527 968.587 501.108 968.246 499.801 967.63C499.016 967.97 498.203 968.241 497.371 968.44C496.509 968.587 495.635 968.654 494.761 968.64H489.381V960.21H494.801C496.081 960.21 496.501 959.14 496.601 958.09V945.83L505.011 942.93V960.99C506.214 961.283 507.456 961.387 508.691 961.3C509.313 961.286 509.924 961.13 510.477 960.844C511.029 960.558 511.51 960.15 511.881 959.65C512.581 958.57 512.881 956.71 512.881 954.09V945.83L521.351 942.93V954.49C521.401 956.399 521.179 958.304 520.691 960.15C521.967 960.867 523.398 961.262 524.861 961.3C525.585 961.373 526.316 961.259 526.985 960.971C527.653 960.682 528.237 960.227 528.681 959.65C529.089 958.981 529.281 958.202 529.231 957.42V945.83L537.671 942.93L537.721 955Z" fill="#1D1D1B"/>
<path d="M581.569 958.84C581.611 960.137 581.396 961.43 580.936 962.643C580.476 963.857 579.78 964.967 578.889 965.91C577.675 967.008 576.191 967.764 574.589 968.1C572.949 968.471 571.27 968.642 569.589 968.61H565.009C565.023 969.527 565.312 970.419 565.839 971.17L558.969 976.17C558.078 975.227 557.382 974.117 556.922 972.903C556.462 971.69 556.247 970.397 556.289 969.1V968.63H549.619V960.2H556.289V930.79L564.969 928.6V960.2H571.289C571.619 960.217 571.944 960.121 572.21 959.926C572.476 959.731 572.667 959.45 572.749 959.13C572.92 958.516 572.991 957.877 572.959 957.24V923.18L581.609 920.31L581.569 958.84Z" fill="#1D1D1B"/>
<path d="M601.42 965.04C601.41 965.71 601.466 966.38 601.59 967.04C601.645 967.669 601.885 968.267 602.28 968.76L595.41 973.76C594.519 972.815 593.823 971.702 593.363 970.487C592.903 969.272 592.688 967.978 592.73 966.68V923.15L601.42 920.32V965.04Z" fill="#1D1D1B"/>
<path d="M664.089 943C665.117 946.559 665.747 950.222 665.969 953.92V957.22C665.937 957.857 666.008 958.495 666.179 959.11C666.26 959.429 666.448 959.709 666.713 959.904C666.977 960.1 667.301 960.197 667.629 960.18H673.019V968.61H667.629C666.428 968.645 665.228 968.521 664.059 968.24C662.905 967.91 661.82 967.371 660.859 966.65C658.065 968.094 654.942 968.784 651.799 968.65H647.599C647.567 970.15 647.355 971.64 646.969 973.09C646.531 974.708 645.708 976.197 644.572 977.43C643.435 978.662 642.017 979.602 640.439 980.17C638.24 980.92 635.921 981.259 633.599 981.17L632.939 974C635.059 974 636.589 973.49 637.519 972.45C638.449 971.41 638.949 969.79 638.949 967.39V943H664.089ZM647.629 960.18H650.759C652.616 960.301 654.476 960.014 656.209 959.34C657.599 958.63 658.469 957.34 658.469 955.1C658.45 953.856 658.333 952.616 658.119 951.39H647.629V960.18Z" fill="#1D1D1B"/>
<path d="M688.62 958.84C688.662 960.137 688.447 961.43 687.987 962.643C687.527 963.857 686.831 964.967 685.94 965.91C684.982 966.901 683.803 967.652 682.5 968.1C681.137 968.497 679.718 968.669 678.3 968.61H672.68V960.18H678.3C678.629 960.197 678.954 960.101 679.22 959.906C679.487 959.711 679.677 959.429 679.76 959.11C679.931 958.496 680.002 957.857 679.97 957.22V923.16L688.62 920.29V958.84Z" fill="#1D1D1B"/>
<path d="M708.461 957.22C708.429 957.857 708.5 958.496 708.671 959.11C708.745 959.426 708.928 959.706 709.187 959.902C709.447 960.097 709.766 960.196 710.091 960.18H715.411V968.61H710.061C707.346 968.695 704.7 967.744 702.661 965.95C701.71 965.033 700.962 963.926 700.466 962.701C699.97 961.476 699.736 960.161 699.781 958.84V922.48L708.461 920.29V957.22Z" fill="#1D1D1B"/>
<path d="M729.891 951.39C729.891 951.96 729.79 952.54 729.72 953.11C729.642 953.804 729.606 954.502 729.61 955.2C729.61 957.12 730.171 958.4 731.311 959.07C732.451 959.74 734.311 960.18 737.041 960.18H748.12V968.61H715.061V960.18H722.941C722.498 958.25 722.323 956.268 722.421 954.29C722.49 952.28 722.687 950.276 723.01 948.29C723.258 946.477 723.642 944.685 724.161 942.93H744.271L741.73 951.35L729.891 951.39Z" fill="#1D1D1B"/>
</svg>
