<svg xmlns="http://www.w3.org/2000/svg" version="1.1" xmlns:xlink="http://www.w3.org/1999/xlink" xmlns:svgjs="http://svgjs.com/svgjs" width="512" height="512" x="0" y="0" viewBox="0 0 511.999 511.999" style="enable-background:new 0 0 512 512" xml:space="preserve"><g><path d="M87.745 238.913a7.726 7.726 0 0 1-7.726-7.726v-30.39a7.726 7.726 0 1 1 15.452 0v30.39a7.726 7.726 0 0 1-7.726 7.726z" style="" fill="#989DA0" data-original="#989da0"></path><path d="M105.906 231.187H69.85c-6.827 0-12.362 5.535-12.362 12.362v16.703h60.781v-16.703c0-6.828-5.535-12.362-12.363-12.362z" style="" fill="#474B63" data-original="#474b63"></path><path d="M90.454 231.187H69.85c-6.827 0-12.362 5.535-12.362 12.362v16.703h20.604v-16.703c-.001-6.828 5.534-12.362 12.362-12.362z" style="" fill="#3E4356" data-original="#3e4356"></path><path d="m46.404 260.252 7.743 54.6h33.731v-54.6z" style="" fill="#49B5CE" data-original="#49b5ce"></path><path d="m46.404 260.252 7.743 54.6h20.26l-7.743-54.6z" style="" fill="#17A4BC" data-original="#17a4bc"></path><path d="m129.219 260.252-7.743 54.6H87.745v-54.6z" style="" fill="#6EDCF9" data-original="#6edcf9"></path><path d="M73.971 312.79h27.815v129.44H73.971z" style="" fill="#BABABA" data-original="#bababa"></path><path d="M73.971 312.79h13.907v129.44H73.971z" style="" fill="#989DA0" data-original="#989da0"></path><path d="M511.983 456.969c0-9.279-7.523-16.802-16.802-16.802H16.817c-9.28 0-16.802 7.523-16.802 16.802 0 9.28 7.523 16.802 16.802 16.802h478.364c9.28 0 16.802-7.523 16.802-16.802z" style="" fill="#BABABA" data-original="#bababa"></path><path d="M495.181 456.969H16.817c-6.215 0-11.63-3.384-14.536-8.401-6.483 11.194 1.629 25.203 14.536 25.203h478.364c12.896 0 21.024-14.002 14.536-25.203-2.906 5.017-8.321 8.401-14.536 8.401z" style="" fill="#989DA0" data-original="#989da0"></path><path d="M136.385 267.978H39.372a7.726 7.726 0 1 1 0-15.452h97.013a7.726 7.726 0 1 1 0 15.452zM129.354 322.578h-82.95a7.726 7.726 0 1 1 0-15.452h82.95a7.726 7.726 0 1 1 0 15.452z" style="" fill="#BABABA" data-original="#bababa"></path><path d="m249.883 116.445-3.908-60.085c-.712-9.79-8.575-17.531-18.372-18.099-9.697-.557-18.466 6.108-20.332 15.866l-7.018 36.856c6.791-.19 9.602 2.351 49.63 25.462z" style="" fill="#49B5CE" data-original="#49b5ce"></path><path d="M221.378 59.973c2.41-8.834 10.704-14.892 19.986-14.359.144.008.284.032.428.044-10.345-13.052-31.365-8.029-34.521 8.47l-7.018 36.856c4.939-.139 9.613 2.365 14.206 5.01 7.097-37.266 6.638-34.99 6.919-36.021z" style="" fill="#17A4BC" data-original="#17a4bc"></path><path d="M452.868 264.597c7.797-13.493-7.392-36.851-20.891-44.645A5686205.76 5686205.76 0 0 0 215.131 94.756c-13.499-7.794-30.759-3.169-38.546 10.329-7.787 13.482-3.18 30.714 10.286 38.521l52.524 30.325.001-.001 17.223 9.945h-.001l.812.469.001-.001 87.187 50.338c2.733 1.577 1.457.84 6.1 3.522l11.124 6.422v.001c9.143 5.28 4.149 2.397 41.961 24.226 13.493 7.757 41.284 9.229 49.065-4.255z" style="" fill="#69DAF4" data-original="#69daf4"></path><path d="M453.989 249.059c-11.664 5.568-30.696 3.338-41.15-2.673l-41.962-24.226v-.001l-17.222-9.944h-.001l-87.187-50.338v.001l-.812-.469h.002l-17.224-9.944h-.002l-52.523-30.324c-8.489-4.922-13.453-13.591-14.014-22.702-13.969 12.883-11.457 35.639 4.978 45.167l52.524 30.325.001-.001 17.223 9.945h-.001l.812.469.001-.001 87.187 50.338 17.223 9.944v.001c9.143 5.28 4.149 2.397 41.961 24.226 17.084 9.822 58.122 9.856 50.186-19.793z" style="" fill="#37CAE2" data-original="#37cae2"></path><path d="M153.135 91.545a7.725 7.725 0 0 1 10.554-2.828l70.927 40.95a7.725 7.725 0 0 1 2.828 10.554 7.726 7.726 0 0 1-10.554 2.828l-70.927-40.95a7.726 7.726 0 0 1-2.828-10.554z" style="" fill="#49B5CE" data-original="#49b5ce"></path><path d="M296.706 241.795c-3.923-6.794 3.709-14.513 10.552-10.561l18.536 10.701a7.726 7.726 0 0 1 2.828 10.554 7.726 7.726 0 0 1-10.555 2.829l-18.535-10.702a7.692 7.692 0 0 1-2.826-2.821zM270.858 256.184a7.726 7.726 0 0 1 10.555-2.828l18.52 10.692a7.727 7.727 0 0 1-7.726 13.382l-18.52-10.692a7.727 7.727 0 0 1-2.829-10.554z" style="" fill="#E3E5E5" data-original="#e3e5e5"></path><path d="m264.684 271.769 77.586-66.404-71.088-41.043-.001.001-48.102 70.034c-8.058 11.725-6.101 27.524 4.389 36.959 10.532 9.471 26.455 9.666 37.216.453z" style="" fill="#6EDCF9" data-original="#6edcf9"></path><path d="M221.927 264.452a28.13 28.13 0 0 0 18.346-6.777l77.588-66.403v-.001l24.408 14.094-77.586 66.404c-13.276 11.368-33.832 8.116-42.756-7.317z" style="" fill="#B9F2FC" data-original="#b9f2fc"></path></g></svg>