<svg xmlns="http://www.w3.org/2000/svg" version="1.1" xmlns:xlink="http://www.w3.org/1999/xlink" xmlns:svgjs="http://svgjs.com/svgjs" width="512" height="512" x="0" y="0" viewBox="0 0 512 512" style="enable-background:new 0 0 512 512" xml:space="preserve"><g><path fill="#FFE07D" d="M361.233 444.267V22.656C361.233 10.144 351.09 0 338.577 0H72.385C59.872 0 49.729 10.144 49.729 22.656v421.611c0 12.513 10.144 22.656 22.656 22.656h266.192c12.513.001 22.656-10.143 22.656-22.656z" data-original="#ffe07d"></path><path fill="#FFD064" d="M394.539 0h-65.233c12.513 0 22.656 10.144 22.656 22.656v421.611c0 12.513-10.143 22.656-22.656 22.656h65.233c12.513 0 22.656-10.144 22.656-22.656V22.656C417.195 10.144 407.052 0 394.539 0z" data-original="#ffd064"></path><path fill="#F4FBFF" d="M383.572 512c12.513 0 22.657-10.144 22.657-22.656V67.733c0-12.506-10.133-22.645-22.636-22.656H117.461c-12.513 0-22.656 10.144-22.656 22.656v421.611c0 12.513 10.144 22.656 22.656 22.656z" data-original="#f4fbff"></path><path fill="#E4F6FF" d="M439.615 45.076h-65.314c12.513 0 22.657 10.144 22.657 22.657v421.611c0 12.513-10.144 22.656-22.657 22.656h65.314c12.513 0 22.656-10.144 22.656-22.656V67.733c0-12.513-10.143-22.657-22.656-22.657z" data-original="#e4f6ff"></path><path fill="#BED8FB" d="M236.776 226.895h-81.263c-8.797 0-15.928-7.131-15.928-15.928V110.203c0-8.797 7.131-15.928 15.928-15.928h81.263c8.797 0 15.928 7.131 15.928 15.928v100.765c0 8.796-7.131 15.927-15.928 15.927z" data-original="#bed8fb"></path><path fill="#407093" d="M196.145 176.018c-25.761 0-47.688 16.389-55.941 39.307 1.897 6.676 8.025 11.571 15.309 11.571h81.263c7.284 0 13.412-4.895 15.309-11.571-8.252-22.918-30.179-39.307-55.94-39.307z" data-original="#407093"></path><circle cx="196.145" cy="156.624" r="25.37" fill="#365E7D" data-original="#365e7d"></circle><path fill="#407093" d="M408.763 290.65H140.204a7.726 7.726 0 1 1 0-15.452h268.559a7.726 7.726 0 1 1 0 15.452zM408.763 340.433H140.204a7.726 7.726 0 1 1 0-15.452h268.559a7.726 7.726 0 1 1 0 15.452zM408.763 390.216H140.204a7.726 7.726 0 1 1 0-15.452h268.559a7.726 7.726 0 1 1 0 15.452zM408.763 440H140.204a7.726 7.726 0 1 1 0-15.452h268.559a7.726 7.726 0 1 1 0 15.452zM408.763 188.73H310.08a7.726 7.726 0 1 1 0-15.452h98.683a7.726 7.726 0 1 1 0 15.452zM408.763 147.892H310.08a7.726 7.726 0 1 1 0-15.452h98.683a7.726 7.726 0 1 1 0 15.452z" data-original="#407093"></path></g></svg>