<svg xmlns="http://www.w3.org/2000/svg" version="1.1" xmlns:xlink="http://www.w3.org/1999/xlink" xmlns:svgjs="http://svgjs.com/svgjs" width="512" height="512" x="0" y="0" viewBox="0 0 28 28" style="enable-background:new 0 0 512 512" xml:space="preserve"><defs><linearGradient id="a" x1="-1.173" x2="25.443" y1="28.681" y2="-1.457" gradientUnits="userSpaceOnUse"><stop offset="0" stop-color="#fff33b"></stop><stop offset=".04" stop-color="#fee72e"></stop><stop offset=".117" stop-color="#fed51b"></stop><stop offset=".196" stop-color="#fdca10"></stop><stop offset=".281" stop-color="#fdc70c"></stop><stop offset=".669" stop-color="#f3903f"></stop><stop offset=".888" stop-color="#ed683c"></stop><stop offset="1" stop-color="#e93e3a"></stop></linearGradient><linearGradient xlink:href="#a" id="b" x1="-1.669" x2="24.946" y1="28.243" y2="-1.895"></linearGradient><linearGradient xlink:href="#a" id="c" x1=".958" x2="27.574" y1="30.563" y2=".425"></linearGradient></defs><g><linearGradient id="a" x1="-1.173" x2="25.443" y1="28.681" y2="-1.457" gradientUnits="userSpaceOnUse"><stop offset="0" stop-color="#fff33b"></stop><stop offset=".04" stop-color="#fee72e"></stop><stop offset=".117" stop-color="#fed51b"></stop><stop offset=".196" stop-color="#fdca10"></stop><stop offset=".281" stop-color="#fdc70c"></stop><stop offset=".669" stop-color="#f3903f"></stop><stop offset=".888" stop-color="#ed683c"></stop><stop offset="1" stop-color="#e93e3a"></stop></linearGradient><linearGradient xlink:href="#a" id="b" x1="-1.669" x2="24.946" y1="28.243" y2="-1.895"></linearGradient><linearGradient xlink:href="#a" id="c" x1=".958" x2="27.574" y1="30.563" y2=".425"></linearGradient><g data-name="Layer 2"><path fill="url(&quot;#a&quot;)" d="M20.443 11.5A6.443 6.443 0 1 0 14 17.943a6.45 6.45 0 0 0 6.443-6.443zM14 16.943a5.443 5.443 0 1 1 5.443-5.443A5.449 5.449 0 0 1 14 16.943z" data-original="url(#a)"></path><path fill="url(&quot;#b&quot;)" d="M16.646 9.146 13 12.793l-1.646-1.647a.5.5 0 0 0-.708.708l2 2a.5.5 0 0 0 .708 0l4-4a.5.5 0 0 0-.708-.708z" data-original="url(#b)"></path><path fill="url(&quot;#c&quot;)" d="m25.028 22.744-2.872-4.866a1.95 1.95 0 0 0 .261-.261 2.023 2.023 0 0 0-.033-2.471 1.062 1.062 0 0 1 .542-1.667 2.064 2.064 0 0 0 0-3.958 1.062 1.062 0 0 1-.542-1.667 2.063 2.063 0 0 0-2.326-3.2 1.061 1.061 0 0 1-1.418-1.03A2.063 2.063 0 0 0 14.876 2.4a1.093 1.093 0 0 1-1.752 0A2.063 2.063 0 0 0 9.36 3.623a1.061 1.061 0 0 1-1.418 1.03 2.063 2.063 0 0 0-2.326 3.2 1.062 1.062 0 0 1-.541 1.667 2.063 2.063 0 0 0 0 3.958 1.062 1.062 0 0 1 .542 1.667 2.022 2.022 0 0 0-.033 2.47 1.959 1.959 0 0 0 .261.262l-2.873 4.867a.5.5 0 0 0 .556.738l3.389-.873L7.79 26a.5.5 0 0 0 .415.37.534.534 0 0 0 .069.005.5.5 0 0 0 .431-.246l2.726-4.618v-.008h.013a2.019 2.019 0 0 0 1.678-.9 1.093 1.093 0 0 1 1.752 0 2.019 2.019 0 0 0 1.69.9v.009l2.736 4.615a.5.5 0 0 0 .431.246.562.562 0 0 0 .07-.005.5.5 0 0 0 .409-.368l.873-3.389 3.39.873a.5.5 0 0 0 .555-.738zM8.457 24.579l-.7-2.7a.5.5 0 0 0-.609-.359l-2.7.7L6.7 18.393a2.041 2.041 0 0 0 1.241-.046 1.061 1.061 0 0 1 1.418 1.03 2 2 0 0 0 1.08 1.843zm7.243-4.544a2.062 2.062 0 0 0-3.4 0 1.063 1.063 0 0 1-1.94-.635 2.061 2.061 0 0 0-2.753-2 1.063 1.063 0 0 1-1.2-1.65 2.061 2.061 0 0 0-1.05-3.23 1.064 1.064 0 0 1 0-2.04 2.061 2.061 0 0 0 1.052-3.235 1.063 1.063 0 0 1 1.2-1.65 2.063 2.063 0 0 0 2.753-2 1.063 1.063 0 0 1 1.938-.63 2.062 2.062 0 0 0 3.4 0 1.063 1.063 0 0 1 1.94.635 2.063 2.063 0 0 0 2.754 2 1.063 1.063 0 0 1 1.2 1.65 2.061 2.061 0 0 0 1.052 3.235 1.064 1.064 0 0 1 0 2.04 2.061 2.061 0 0 0-1.052 3.235 1.063 1.063 0 0 1-1.2 1.65 2.063 2.063 0 0 0-2.754 2 1.063 1.063 0 0 1-1.939.631zm5.148 1.481a.5.5 0 0 0-.61.359l-.7 2.7-1.978-3.355a2 2 0 0 0 1.08-1.843 1.061 1.061 0 0 1 1.418-1.03 2.055 2.055 0 0 0 1.241.045l2.255 3.821z" data-original="url(#c)"></path></g></g></svg>