<svg xmlns="http://www.w3.org/2000/svg" version="1.1" xmlns:xlink="http://www.w3.org/1999/xlink" xmlns:svgjs="http://svgjs.com/svgjs" width="512" height="512" x="0" y="0" viewBox="0 0 32 32" style="enable-background:new 0 0 512 512" xml:space="preserve" class=""><g><path d="M30 29V13.163C30 11.97 29.03 11 27.837 11H22V3.736c0-.086-.019-1.167-.959-1.797-.94-.629-1.947-.235-2.027-.203L4.339 7.779a2.155 2.155 0 0 0-1.339 2V29H2a1 1 0 0 0 0 2h28a1 1 0 0 0 0-2zM5 9.779c0-.066.04-.125.101-.15l14.675-6.042a.153.153 0 0 1 .152.015.15.15 0 0 1 .072.134V29H5zM22 29V13h5.837c.09 0 .163.073.163.163V29z" fill="#000000" data-original="#000000" class=""></path><path d="M15 24h-5a1 1 0 0 0 0 2h5a1 1 0 0 0 0-2zM15 20h-5a1 1 0 0 0 0 2h5a1 1 0 0 0 0-2zM15 16h-5a1 1 0 0 0 0 2h5a1 1 0 0 0 0-2zM15 12h-5a1 1 0 0 0 0 2h5a1 1 0 0 0 0-2z" fill="#000000" data-original="#000000" class=""></path></g></svg>