<svg xmlns="http://www.w3.org/2000/svg" version="1.1" xmlns:xlink="http://www.w3.org/1999/xlink" xmlns:svgjs="http://svgjs.com/svgjs" width="512" height="512" x="0" y="0" viewBox="0 0 512 512" style="enable-background:new 0 0 512 512" xml:space="preserve" class=""><g><path fill="#FFCEBF" d="M493.957 427.3c-.297 0-151.555 61.598-177.957 72.098-2.402.903-3.602 1.5-3.898 1.5-33.602 15.301-77.7 15-113.7-3.296L61 442.898V280.602L146.8 268c15.302-4.2 30-2.7 43.2 3.902 3 1.5 117.3 58.797 124.5 62.399.602.3 1.2.601 1.5.902 13.5 7.2 18.902 24.598 11.7 39.297-2.7 5.402-6.9 9.902-11.7 12.602-8.398 4.8-18.898 5.398-28.5.601-2.996-1.5-55.8-27.601-55.8-27.601-18.9-9.301-41.7-4.2-54.9 12.3-5.402 6.598-4.198 15.899 2.4 21 6.304 5.098 15.902 4.2 21-2.402 4.5-5.398 12-7.2 18.6-4.2l55.2 27.9c8.7 4.198 18 6.3 27 6.3 1.8 0 7.2-1.2 15-3.297 42.3-11.101 156.059-45.902 156.059-45.902 15.3-5.098 31.199 2.699 37.199 16.5 6.601 11.101 1.203 31.797-15.301 39zm0 0" data-original="#ffcebf"></path><path fill="#FFBFAB" d="M493.957 427.3c-.297 0-151.555 61.598-177.957 72.098V417.7c42.3-11.097 156.059-45.898 156.059-45.898 15.3-5.102 31.199 2.699 37.199 16.5 6.601 11.101 1.203 31.797-15.301 39zm0 0" data-original="#ffbfab"></path><path fill="#FFE470" d="M316 0c-74.398 0-135 61.602-135 136s60.602 135 135 135 135-60.602 135-135S390.398 0 316 0zm0 0" data-original="#ffe470" class=""></path><path fill="#FFD400" d="M316 271V0c74.398 0 135 61.602 135 136s-60.602 135-135 135zm0 0" data-original="#ffd400" class=""></path><path fill="#FDBF00" d="M316 30c-57.898 0-105 48.102-105 106s47.102 105 105 105 105-47.102 105-105S373.898 30 316 30zm0 0" data-original="#fdbf00"></path><path fill="#FF9F00" d="M421 136c0 57.898-47.102 105-105 105V30c57.898 0 105 48.102 105 106zm0 0" data-original="#ff9f00"></path><path fill="#FFE470" d="M361 166c0 19.5-12.598 36-30 42.3V226c0 8.402-6.598 15-15 15s-15-6.598-15-15v-17.7c-17.402-6.3-30-22.8-30-42.3 0-8.402 6.598-15 15-15s15 6.598 15 15 6.598 15 15 15 15-6.598 15-15-6.598-15-15-15c-24.902 0-45-20.098-45-45 0-19.5 12.598-36 30-42.297V45c0-8.402 6.598-15 15-15s15 6.598 15 15v18.703C348.402 70 361 86.5 361 106c0 8.402-6.598 15-15 15s-15-6.598-15-15-6.598-15-15-15-15 6.598-15 15 6.598 15 15 15c24.902 0 45 20.098 45 45zm0 0" data-original="#ffe470" class=""></path><path fill="#FF4B00" d="M76 482H15c-8.285 0-15-6.715-15-15V256c0-8.285 6.715-15 15-15h31c24.852 0 45 20.148 45 45v181c0 8.285-6.715 15-15 15zm0 0" data-original="#ff4b00"></path><g fill="#FFD400"><path d="M361 166c0 19.5-12.598 36-30 42.3V226c0 8.402-6.598 15-15 15v-60c8.402 0 15-6.598 15-15s-6.598-15-15-15v-30c24.902 0 45 20.098 45 45zM316 91V30c8.402 0 15 6.598 15 15v18.703C348.402 70 361 86.5 361 106c0 8.402-6.598 15-15 15s-15-6.598-15-15-6.598-15-15-15zm0 0" fill="#FFD400" data-original="#ffd400" class=""></path></g></g></svg>