<svg xmlns="http://www.w3.org/2000/svg" version="1.1" xmlns:xlink="http://www.w3.org/1999/xlink" xmlns:svgjs="http://svgjs.com/svgjs" width="512" height="512" x="0" y="0" viewBox="0 0 64 64" style="enable-background:new 0 0 512 512" xml:space="preserve" class=""><g><path d="M58.481 32.602a3.98 3.98 0 0 0-5.583-.501l-10.169 8.465a3.759 3.759 0 0 0-2.619-1.393c-2.2-.26-8.5-.445-10.452-1.318-2.82-.862-8.366-1.179-11.348.94l-4.96 2.846-.726-1.135a.999.999 0 0 0-1.382-.303l-6.19 3.963a1 1 0 0 0-.304 1.38l8.957 13.993a1 1 0 0 0 1.38.303l6.192-3.963c1.113-.764-.107-1.916-.528-2.68l.907-.477a1.446 1.446 0 0 1 1.002-.128c1.33.239 10.739 2.725 11.897 2.57a8.227 8.227 0 0 0 5.237-1.88L57.973 38.21a3.99 3.99 0 0 0 .508-5.608zm-43.63 25.017L6.97 45.311l4.507-2.885 7.879 12.308zm41.846-20.948-18.18 15.073a6.216 6.216 0 0 1-5.358 1.259l-10.043-2.357a4.596 4.596 0 0 0-3.45.862l-5.236-8.18 4.894-2.81c4.237-2.673 9.044-.683 13.161.018l7.457.629a1.793 1.793 0 0 1-.204 3.58l-12.86-.361a1 1 0 0 0-.056 2l12.86.36a3.77 3.77 0 0 0 2.75-1.072 3.694 3.694 0 0 0 1.106-3.178l10.64-8.856a1.972 1.972 0 0 1 2.519 3.033z" fill="#000000" data-original="#000000" class=""></path><path d="M24.196 32.982c10.165 6.754 24.364-.823 24.276-13.23A15.77 15.77 0 0 0 32.719 4c-15.758.142-21.566 20.515-8.523 28.982zm1.568-1.385a6.992 6.992 0 0 1 4.005-6.94 6.637 6.637 0 0 0 5.9 0 6.997 6.997 0 0 1 4.036 6.305c0 .232-.012.44-.03.635a13.764 13.764 0 0 1-13.911 0zm6.955-8.24c-6.143-.196-6.142-9.103 0-9.297 6.143.195 6.141 9.102 0 9.296zm0-17.357c12.754.002 18.55 16.057 8.926 24.194a9.015 9.015 0 0 0-4.182-6.837 6.624 6.624 0 0 0 1.904-4.649c-.312-8.799-12.986-8.797-13.297 0a6.624 6.624 0 0 0 1.904 4.649 9.017 9.017 0 0 0-4.182 6.838C14.168 22.055 19.964 6 32.72 6z" fill="#000000" data-original="#000000" class=""></path></g></svg>