<svg xmlns="http://www.w3.org/2000/svg" version="1.1" xmlns:xlink="http://www.w3.org/1999/xlink" xmlns:svgjs="http://svgjs.com/svgjs" width="512" height="512" x="0" y="0" viewBox="0 0 64 64" style="enable-background:new 0 0 512 512" xml:space="preserve"><defs><linearGradient id="a" x1="31.999" x2="31.999" y1="61" y2="3" gradientUnits="userSpaceOnUse"><stop offset=".011" stop-color="#ef4136"></stop><stop offset="1" stop-color="#fbb040"></stop></linearGradient></defs><g><linearGradient id="a" x1="31.999" x2="31.999" y1="61" y2="3" gradientUnits="userSpaceOnUse"><stop offset=".011" stop-color="#ef4136"></stop><stop offset="1" stop-color="#fbb040"></stop></linearGradient><path fill="url(&quot;#a&quot;)" d="M22.482 53.666A10.015 10.015 0 0 1 15.051 45h4.21a15.83 15.83 0 0 0 3.221 8.666zM19.262 43a15.83 15.83 0 0 1 3.22-8.666A10.015 10.015 0 0 0 15.051 43zm2 0h7.476A13.87 13.87 0 0 0 25 34.446 13.87 13.87 0 0 0 21.262 43zm9.476 0h4.211a10.015 10.015 0 0 0-7.431-8.666A15.83 15.83 0 0 1 30.738 43zm-9.476 2A13.87 13.87 0 0 0 25 53.554 13.87 13.87 0 0 0 28.738 45h-7.476zm9.476 0a15.83 15.83 0 0 1-3.22 8.666A10.015 10.015 0 0 0 34.949 45h-4.21zm26.84-34.365a3.945 3.945 0 0 0-2.297-1.998L45.75 5.3A5.979 5.979 0 0 1 46 7v3.79l1.05.35a1 1 0 0 1-.32 1.95 1.114 1.114 0 0 1-.31-.05L46 12.9v3.17l4.2 1.4a1.001 1.001 0 0 1-.32 1.95 1.116 1.116 0 0 1-.31-.05L46 18.18v3.16l2.61.87a1.001 1.001 0 0 1-.32 1.95 1.114 1.114 0 0 1-.31-.05L46 23.45v6.33c.02.01.05.01.07.02l1.9.64a.992.992 0 0 1 .63 1.26 1.006 1.006 0 0 1-.95.69.948.948 0 0 1-.32-.06L46 31.89v17.247L57.787 13.69a3.961 3.961 0 0 0-.21-3.055zM10 61a3.999 3.999 0 0 1-4-4V7a3.999 3.999 0 0 1 4-4h30a4.033 4.033 0 0 1 4 4v50a3.999 3.999 0 0 1-4 4zm29-35a1 1 0 0 0 0 2h3v-2zM16 9a1 1 0 0 0 1 1h16a1 1 0 0 0 0-2H17a1 1 0 0 0-1 1zm-5 5a1 1 0 0 0 1 1h26a1 1 0 0 0 0-2H12a1 1 0 0 0-1 1zm1 13a1.003 1.003 0 0 0-1-1H8v2h3a1.003 1.003 0 0 0 1-1zm0-7h26a1 1 0 0 0 0-2H12a1 1 0 0 0 0 2zm23 6h-2a1 1 0 0 0 0 2h2a1 1 0 0 0 0-2zm-6 0h-2a1 1 0 0 0 0 2h2a1 1 0 0 0 0-2zm-6 0h-2a1 1 0 0 0 0 2h2a1 1 0 0 0 0-2zm-6 0h-2a1 1 0 0 0 0 2h2a1 1 0 0 0 0-2zm20 18a12 12 0 1 0-12 12 12.013 12.013 0 0 0 12-12z" data-original="url(#a)"></path></g></svg>