<svg xmlns="http://www.w3.org/2000/svg" version="1.1" xmlns:xlink="http://www.w3.org/1999/xlink" xmlns:svgjs="http://svgjs.com/svgjs" width="512" height="512" x="0" y="0" viewBox="0 0 64 64" style="enable-background:new 0 0 512 512" xml:space="preserve"><g><g data-name="Layer 9"><path fill="#F9CB5D" d="M46 46H36a2 2 0 0 0-2 2v12a2 2 0 0 0 2 2h10a2 2 0 0 0 2-2V48a2 2 0 0 0-2-2z" data-original="#f9cb5d"></path><path fill="#FFD98C" d="M46 46H36v12a2 2 0 0 0 2 2h10V48a2 2 0 0 0-2-2z" data-original="#ffd98c"></path><path fill="#5B5B5B" d="M9 33h46v2H9z" data-original="#5b5b5b"></path><path fill="#785349" d="M19 58a2 2 0 0 0-2 2v2h14v-2a2 2 0 0 0-2-2z" data-original="#785349"></path><path fill="#C5DDEF" d="M15 22v6l4 1v29h10V29h4v-2a4.723 4.723 0 0 0-3.946-4.658L27 22z" data-original="#c5ddef"></path><path fill="#E5EFF8" d="M29.054 22.342 27 22h-6v11.494A3.506 3.506 0 0 0 24.506 37H29v-8h4v-2a4.723 4.723 0 0 0-3.946-4.658z" data-original="#e5eff8"></path><path fill="#D08D78" d="M27 20v2a3 3 0 0 1-3 3 3 3 0 0 1-3-3v-2z" data-original="#d08d78"></path><path fill="#4C4C4C" d="m16.631 12.156-.239-1.2A20.183 20.183 0 0 1 16 7a5 5 0 0 1 5-5h5a3 3 0 0 1 3 3 3 3 0 0 1 3 3 10.143 10.143 0 0 1-.2 1.981l-.435 2.174" data-original="#4c4c4c"></path><path fill="#686868" d="M18 7a20.183 20.183 0 0 0 .392 3.961l.239 1.2h12.738l.431-2.18A10.143 10.143 0 0 0 32 8a3 3 0 0 0-3-3 3 3 0 0 0-3-3h-3a5 5 0 0 0-5 5z" data-original="#686868"></path><path fill="#916658" d="M9 58H5a3 3 0 0 0-3 3v1h10v-1a3 3 0 0 0-3-3z" data-original="#916658"></path><path fill="#C5DDEF" d="M5 32h4v26H5z" data-original="#c5ddef"></path><g fill="#D08D78"><path d="m29 11-2-2a6.826 6.826 0 0 1-4.828 2H19v5a5 5 0 0 0 5 5 5 5 0 0 0 5-5z" fill="#D08D78" data-original="#d08d78"></path><path d="M19 12h-1.5a2.5 2.5 0 0 0-2.5 2.5 2.5 2.5 0 0 0 2.5 2.5h1.6M29 12h1.5a2.5 2.5 0 0 1 2.5 2.5 2.5 2.5 0 0 1-2.5 2.5h-1.6" fill="#D08D78" data-original="#d08d78"></path></g><path fill="#004C9D" d="M19 39h10v19H19z" data-original="#004c9d"></path><path fill="#006BDB" d="M21 51.882A4.118 4.118 0 0 0 25.118 56H29V39h-8z" data-original="#006bdb"></path><path fill="#F2B9A1" d="M33 29v9a2 2 0 0 1-2 2 2 2 0 0 1-2-2v-9z" data-original="#f2b9a1"></path><path fill="#D08D78" d="M15 22h-3l-2.47-7.411A2.325 2.325 0 0 0 7.325 13 2.325 2.325 0 0 0 5 15.325a8.689 8.689 0 0 0 .622 3.228l2.635 6.59A2.954 2.954 0 0 0 11 27h4z" data-original="#d08d78"></path><path fill="#5B5B5B" d="M46 46h-2v-6a1 1 0 0 0-1-1h-4a1 1 0 0 0-1 1v6h-2v-6a3 3 0 0 1 3-3h4a3 3 0 0 1 3 3z" data-original="#5b5b5b"></path><path fill="#004C9D" d="M34 50h14v8H34z" data-original="#004c9d"></path><path fill="#F2B9A1" d="M25 20.9a5 5 0 0 0 4-4.9v-5l-2-2a6.826 6.826 0 0 1-4.828 2H21v5a5 5 0 0 0 4 4.9zM22 21.578V22a3 3 0 0 0 2.5 2.95A3 3 0 0 0 27 22v-1.023a4.926 4.926 0 0 1-5 .6zM9.53 14.589A2.325 2.325 0 0 0 7.325 13a2.3 2.3 0 0 0-1.059.266A2.3 2.3 0 0 0 6 14.325a8.689 8.689 0 0 0 .622 3.228l2.635 6.59A2.954 2.954 0 0 0 12 26h3v-4h-3z" data-original="#f2b9a1"></path><path fill="#A37765" d="M29 58H19a2 2 0 0 0 2 2h10a2 2 0 0 0-2-2z" data-original="#a37765"></path><path fill="#004C9D" d="M23 42h2v20h-2z" data-original="#004c9d"></path><path fill="#785349" d="M23 58h2v4h-2z" data-original="#785349"></path><path fill="#006BDB" d="M36 50h12v8H36z" data-original="#006bdb"></path><path fill="#E5EFF8" d="M7 32v22a2 2 0 0 0 2 2V32z" data-original="#e5eff8"></path><path fill="#A37765" d="M9 58H5a2.962 2.962 0 0 0-.982.178A1.993 1.993 0 0 0 6 60h5.816A2.99 2.99 0 0 0 9 58z" data-original="#a37765"></path><path fill="#916658" d="M59 58h-4a3 3 0 0 0-3 3v1h10v-1a3 3 0 0 0-3-3z" data-original="#916658"></path><path fill="#C5DDEF" d="M55 32h4v26h-4z" data-original="#c5ddef"></path><path fill="#E5EFF8" d="M57 32v22a2 2 0 0 0 2 2V32z" data-original="#e5eff8"></path><path fill="#A37765" d="M59 58h-4a2.962 2.962 0 0 0-.982.178A1.993 1.993 0 0 0 56 60h5.816A2.99 2.99 0 0 0 59 58z" data-original="#a37765"></path></g></g></svg>