<?xml version="1.0" encoding="utf-8"?>
<!-- Generator: Adobe Illustrator 25.0.1, SVG Export Plug-In . SVG Version: 6.00 Build 0)  -->
<svg version="1.1" id="Layer_1" xmlns="http://www.w3.org/2000/svg" xmlns:xlink="http://www.w3.org/1999/xlink" x="0px" y="0px"
	 viewBox="0 0 512 512" style="enable-background:new 0 0 512 512;" xml:space="preserve">
<style type="text/css">
	.st0{fill:#6CAFB0;}
	.st1{fill:#6CAFB0;stroke:#FFFFFF;stroke-width:0.3835;stroke-miterlimit:10;}
</style>
<g>
	<g>
		<path class="st0" d="M175.7,178.2l28.2,87.3h-17.2L181,248h-30.4l-5.8,17.5h-17.2l28.6-87.3H175.7z M165.9,199.1L155.7,233h21
			L165.9,199.1z"/>
		<path class="st0" d="M195,178.2h65.7v14.9h-24v72.2h-16.8v-72.2H195V178.2L195,178.2z"/>
		<path class="st0" d="M269.4,178.2h59.4v14.9h-42.5V213h39.2v15h-39.2v22.5h44.4v14.9h-61.3V178.2z"/>
		<path class="st0" d="M402.8,160.8c-17.1-9.6-38.3-18.1-64.8-25c-136.6-35.3-272,0.8-272,0.8c5-1.5,32.8-2.6,70.6-1.2
			c57.7,2.1,138.8,10.2,198.7,32.3c28.3,10.4,50.3,23.7,67.6,38v-44.9H402.8z"/>
		<polygon class="st0" points="85,121.6 85.8,134.7 86.5,147.8 74.8,141.9 63.1,135.9 74,128.8 		"/>
		<path class="st0" d="M402.8,118.8c-76.8-17.1-137.1-15-137.1-15c5.2-0.3,32.4,4.9,69,14.7c20.6,5.5,44,12.7,68.1,21.1V118.8z"/>
		<polygon class="st0" points="287.7,93.3 285.5,106.2 283.2,119.2 273.1,110.7 263.1,102.4 275.4,97.8 		"/>
		<path class="st0" d="M384.2,198.1v52.2L258.1,323L132,250.2V139.1c-6.7-0.2-13.1-0.3-19.4-0.5v122.8l145.5,84.1l145.6-84v-47.8
			C397.5,208.1,391.1,202.9,384.2,198.1z"/>
		<path class="st0" d="M384.2,110.8c6.3,1.2,12.9,2.5,19.4,4V93.4l-145.5-84l-145.5,84v28.8c6-0.9,12.5-1.8,19.4-2.6v-14.9
			l126.1-72.8l126.1,72.8V110.8z"/>
		<path class="st0" d="M384.2,137.3v8.1c6.9,2.8,13.3,6,19.4,9.2V144C397,141.6,390.5,139.4,384.2,137.3z"/>
	</g>
	<g>
		<path class="st1" d="M37.8,488.6c0,4.4,0,8,0.2,9.9c0.1,1.3,0.4,2.3,1.9,2.5c0.7,0.1,1.4,0.1,2.2,0.2c0.3,0,0.4,0.1,0.4,0.3
			c0,0.2-0.3,0.4-0.8,0.4c-2.6,0-5.6-0.1-5.9-0.1s-3.3,0.1-4.7,0.1c-0.5,0-0.7-0.1-0.7-0.4c0-0.1,0.1-0.3,0.4-0.3
			c0.5,0,1-0.1,1.4-0.2c1-0.2,1.2-1.2,1.4-2.5c0.2-1.9,0.2-5.6,0.2-9.9v-19.4l-7,0.1c-3,0.1-4.1,0.4-4.9,1.5
			c-0.3,0.4-0.6,0.9-0.8,1.4c-0.1,0.4-0.3,0.4-0.5,0.4c-0.1,0-0.2-0.1-0.2-0.4c0-0.4,1-4.4,1-4.7c0.1-0.2,0.3-0.8,0.5-0.8
			c0.7,0.2,1.3,0.4,2.1,0.5c1.4,0.1,3.2,0.2,3.8,0.2h17.9c1.1,0,2.3-0.1,3.4-0.2c0.7-0.1,1.1-0.2,1.3-0.2c0.3,0,0.3,0.3,0.3,0.5
			c0,1.4-0.1,4.5-0.1,5c0,0.4-0.1,0.6-0.3,0.6s-0.3-0.1-0.4-0.8v-0.5c-0.1-1.3-1.3-2.4-5.9-2.5l-6-0.1L37.8,488.6z"/>
		<path class="st1" d="M68.4,480.5c0-7.2,0-8.5-0.1-9.9c-0.1-1.6-0.4-2.3-2-2.6c-0.5-0.1-1-0.1-1.6-0.1c-0.2,0-0.4-0.1-0.4-0.2
			c0-0.3,0.2-0.4,0.7-0.4c2.2,0,5.1,0.1,5.4,0.1c0.5,0,4.2-0.1,5.6-0.1c3,0,6.2,0.3,8.7,2c2,1.4,3.3,3.8,3.3,6.2
			c0,3.4-1.4,6.8-5.7,10.6c3.9,4.8,7.2,8.9,9.9,11.7c2.6,2.6,4.6,3.1,5.8,3.3c0.6,0.1,1.2,0.1,1.9,0.1c0.2,0,0.4,0.1,0.4,0.3
			c0,0.2-0.3,0.4-1.1,0.4h-3.4c-2.7,0-3.9-0.2-5.1-0.8c-2-1-3.7-3.3-6.5-6.8c-2-2.5-4.2-5.6-5.2-6.8c-0.1-0.2-0.4-0.3-0.6-0.3
			l-5.9-0.1c-0.2,0-0.3,0.1-0.3,0.4v1.1c0,4.4,0,8,0.2,9.9c0.1,1.3,0.4,2.3,1.9,2.5c0.7,0.1,1.4,0.1,2.2,0.2c0.3,0,0.4,0.1,0.4,0.3
			c0,0.2-0.3,0.4-0.7,0.4c-2.6,0-5.6-0.1-5.9-0.1c0,0-3,0.1-4.5,0.1c-0.5,0-0.7-0.1-0.7-0.4c0-0.1,0.1-0.3,0.4-0.3
			c0.5,0,1-0.1,1.4-0.2c1-0.2,1.2-1.2,1.4-2.5c0.2-1.9,0.2-5.6,0.2-9.9L68.4,480.5z M72.2,484.5c0,0.2,0.1,0.4,0.3,0.5
			c0.7,0.4,2.9,0.7,5,0.7c1.3,0.1,2.5-0.2,3.6-0.8c1.7-1.1,2.9-3.6,2.9-7c0-5.8-3.1-9.2-8.2-9.2c-1,0-2.2,0.1-3.2,0.2
			c-0.2,0.1-0.4,0.3-0.4,0.6L72.2,484.5L72.2,484.5z"/>
		<path class="st1" d="M130.6,468.3c0.6-1.5,0.7-1.8,1-1.8s0.4,0.2,1,1.6c0.7,1.7,8.2,20.7,11.1,27.6c1.7,4.1,3.1,4.8,4.1,5.1
			c1.2,0.4,2.4,0.1,2.4,0.6c0,0.4-0.2,0.4-3,0.4c-2.6,0-6.8-0.1-6.8-0.4c0-0.4,0.7-0.2,0.7-1c0-0.2-0.1-0.4-0.1-0.6l-4.4-11.3
			c-0.1-0.1-0.2-0.3-0.4-0.2H126c-0.2,0-0.4,0.1-0.5,0.4l-2.9,8.1c-0.4,1-0.6,1.9-0.7,3c0,1,0.9,1.5,1.8,1.5h0.5
			c0.3,0,0.4,0.1,0.4,0.3c0,0.2-0.3,0.4-0.7,0.4h-9.1c-0.6,0-0.9-0.1-0.9-0.4c0-0.2,0.2-0.3,0.4-0.3c3.3,0,4.3-1.6,5.4-4.4
			L130.6,468.3z M135.5,486.6c0.1,0,0.2-0.1,0.2-0.1c0-0.1,0-0.1,0-0.2l-4.5-12.4c-0.1-0.4-0.3-0.5-0.4-0.5s-0.2,0.1-0.3,0.5
			l-4.2,12.4c0,0.1,0,0.1,0,0.1c0,0.1,0.1,0.1,0.2,0.1L135.5,486.6L135.5,486.6z"/>
		<path class="st1" d="M170.5,495.6c0.1,3.8,0.6,5,1.9,5.3c0.7,0.2,1.6,0.3,2.4,0.3c0.3,0,0.4,0.1,0.4,0.3c0,0.2-0.3,0.4-0.9,0.4
			h-9.6c-0.5,0-0.7,0-0.7-0.4c0-0.2,0.1-0.3,0.4-0.3c0.7,0,1.3-0.1,2-0.3c1.2-0.3,1.4-1.6,1.4-5.8l0.1-26.3c0-1.8,0.1-2.3,0.5-2.3
			s1.2,1,1.6,1.5c0.7,0.8,7.8,8.2,15.1,15.7c4.7,4.8,9.9,10.5,11.4,11.9l-0.5-23.3c-0.1-3-0.4-4-1.9-4.3c-0.7-0.1-1.6-0.2-2.3-0.2
			c-0.3,0-0.4-0.1-0.4-0.3c0-0.2,0.4-0.3,1-0.3h9c0.5,0,0.9,0.1,0.9,0.3c0,0.2-0.1,0.3-0.5,0.3s-0.7,0.1-1.1,0.1
			c-1.6,0.3-1.8,1.3-1.8,4.1l-0.1,26.9c0,3-0.1,3.3-0.4,3.3c-0.4,0-1-0.5-3.5-3c-0.5-0.4-7.3-7.2-12.4-12.4
			c-5.5-5.7-10.9-11.5-12.5-13.1L170.5,495.6z"/>
		<path class="st1" d="M216.6,501.2c-0.7-0.4-0.7-0.5-0.7-1.8c0-2.3,0.1-4.1,0.2-4.8c0-0.5,0.1-0.7,0.4-0.7c0.3,0,0.4,0.1,0.4,0.4
			c0,0.6,0,1.1,0.1,1.7c0.7,3.4,3.9,4.7,7,4.7c4.6,0,6.8-3.2,6.8-6.1c0-3.2-1.4-5-5.5-8.2l-2.2-1.7c-5-4-6.2-6.8-6.2-9.9
			c0-4.9,3.8-8.2,9.9-8.2c1.5,0,3,0.1,4.5,0.4c0.5,0.1,1.1,0.2,1.7,0.2c0.4,0,0.5,0.1,0.5,0.3c0,0.2-0.2,1.7-0.2,4.8
			c0,0.7-0.1,1-0.3,1c-0.3,0-0.4-0.2-0.4-0.6c-0.1-0.8-0.3-1.6-0.6-2.3c-0.3-0.4-1.6-2.4-5.9-2.4c-3.3,0-5.9,1.9-5.9,5.3
			c0,2.6,1.2,4.3,5.8,7.7l1.3,1c5.6,4.3,7,7.1,7,10.8c0,3-1.6,5.9-4,7.6c-2.2,1.3-4.7,2-7.2,1.9
			C220.8,502.6,218.6,502.1,216.6,501.2z"/>
		<path class="st1" d="M266.7,466.6c10.7,0,18.7,6.5,18.7,17.2c0,10.2-7.5,18.8-19,18.8c-13.1,0-18.5-9.8-18.5-18
			C248,477.1,253.6,466.6,266.7,466.6z M267.7,500.8c4.3,0,13.1-2.4,13.1-15.7c0-11-7-16.9-14.5-16.9c-7.9,0-13.9,5-13.9,15.1
			C252.5,493.9,259.2,500.8,267.7,500.8L267.7,500.8z"/>
		<path class="st1" d="M303.3,480.5c0-7.2,0-8.5-0.1-9.9c-0.1-1.6-0.4-2.3-2-2.6c-0.5-0.1-1-0.1-1.6-0.1c-0.2,0-0.4-0.1-0.4-0.2
			c0-0.3,0.2-0.4,0.7-0.4c2.2,0,5.2,0.1,5.4,0.1c0.5,0,4.2-0.1,5.6-0.1c3,0,6.2,0.3,8.7,2c2,1.4,3.3,3.8,3.3,6.2
			c0,3.4-1.4,6.8-5.7,10.6c3.9,4.8,7.1,8.9,9.9,11.7c2.6,2.6,4.6,3.1,5.8,3.3c0.6,0.1,1.2,0.1,1.9,0.1c0.2,0,0.4,0.1,0.4,0.3
			c0,0.2-0.3,0.4-1.1,0.4h-3.4c-2.7,0-3.9-0.2-5.1-0.8c-2-1-3.7-3.3-6.5-6.8c-2-2.5-4.2-5.6-5.2-6.8c-0.1-0.2-0.4-0.3-0.6-0.3
			l-5.9-0.1c-0.2,0-0.3,0.1-0.3,0.4v1.1c0,4.4,0,8,0.2,9.9c0.1,1.3,0.4,2.3,1.9,2.5c0.7,0.1,1.4,0.1,2.2,0.2c0.3,0,0.4,0.1,0.4,0.3
			c0,0.2-0.3,0.4-0.7,0.4c-2.6,0-5.6-0.1-5.9-0.1c0,0-3,0.1-4.5,0.1c-0.5,0-0.7-0.1-0.7-0.4c0-0.1,0.1-0.3,0.4-0.3
			c0.5,0,1-0.1,1.4-0.2c1-0.2,1.2-1.2,1.4-2.5c0.2-1.9,0.2-5.6,0.2-9.9L303.3,480.5z M307.1,484.5c0,0.2,0.1,0.4,0.3,0.5
			c0.7,0.4,2.9,0.7,5,0.7c1.3,0.1,2.5-0.2,3.6-0.8c1.7-1.1,2.9-3.6,2.9-7c0-5.8-3.1-9.2-8.2-9.2c-1,0-2.2,0.1-3.2,0.2
			c-0.2,0.1-0.4,0.3-0.4,0.6L307.1,484.5L307.1,484.5z"/>
		<path class="st1" d="M353,480.5c0-7.2,0-8.5-0.1-9.9c-0.1-1.6-0.4-2.3-2-2.6c-0.5-0.1-1-0.1-1.6-0.1c-0.2,0-0.4-0.1-0.4-0.2
			c0-0.3,0.2-0.4,0.7-0.4c1.1,0,2.4,0,3.4,0.1l1.9,0.1c0.3,0,9.8,0,10.9-0.1c0.7,0,1.3-0.1,2-0.2c0.3-0.1,0.4-0.2,0.7-0.2
			c0.1,0,0.1,0.1,0.1,0.4s-0.2,0.8-0.4,2.2c-0.1,0.4-0.1,2.4-0.2,3c-0.1,0.2-0.1,0.5-0.4,0.5s-0.4-0.2-0.4-0.6
			c0-0.6-0.1-1.1-0.3-1.7c-0.3-0.7-0.8-1.3-3.4-1.6c-0.8-0.1-6-0.1-6.5-0.1c-0.2,0-0.3,0.1-0.3,0.4V482c0,0.4,0,0.4,0.3,0.4
			c0.6,0,6.5,0,7.6-0.1s1.8-0.2,2.2-0.7c0.3-0.4,0.5-0.6,0.7-0.6c0.1,0,0.2,0.1,0.2,0.4s-0.2,1-0.4,2.6c-0.1,0.9-0.2,2.6-0.2,2.9
			c0,0.4,0,0.9-0.3,0.9s-0.3-0.2-0.3-0.4c0-0.5-0.1-1-0.2-1.5c-0.2-0.7-0.6-1.4-2.5-1.6c-1.3-0.1-6-0.2-6.8-0.2
			c-0.1,0-0.3,0.1-0.3,0.2v0.1v4.1c0,1.6-0.1,6.8,0,7.9c0.1,3.2,0.9,3.8,5.5,3.8c1.3,0,3.3,0,4.6-0.5c1.3-0.5,1.8-1.4,2.2-3.3
			c0.1-0.5,0.1-0.7,0.4-0.7s0.3,0.4,0.3,0.7c-0.1,1.5-0.3,3-0.6,4.5c-0.3,1.2-0.7,1.2-2.6,1.2c-3.6,0-6.2-0.1-8-0.1
			c-1.9-0.1-3-0.1-3.7-0.1c-0.1,0-0.9,0-1.9,0s-2,0.1-2.7,0.1c-0.5,0-0.7-0.1-0.7-0.4c0-0.1,0.1-0.3,0.4-0.3c0.5,0,1-0.1,1.4-0.2
			c1-0.2,1.2-1.2,1.4-2.5c0.2-1.9,0.2-5.6,0.2-9.9L353,480.5z"/>
		<path class="st1" d="M391.2,488.6c0,4.4,0,8,0.2,9.9c0.1,1.3,0.4,2.3,1.9,2.5c0.7,0.1,1.4,0.1,2.2,0.2c0.3,0,0.4,0.1,0.4,0.3
			c0,0.2-0.3,0.4-0.8,0.4c-2.6,0-5.6-0.1-5.9-0.1c-0.2,0-3.3,0.1-4.7,0.1c-0.5,0-0.7-0.1-0.7-0.4c0-0.1,0.1-0.3,0.4-0.3
			c0.5,0,1-0.1,1.4-0.2c1-0.2,1.2-1.2,1.4-2.5c0.2-1.9,0.2-5.6,0.2-9.9v-8.1c0-7.2,0-8.5-0.1-9.9c-0.1-1.6-0.6-2.3-1.6-2.6
			c-0.5-0.1-1-0.1-1.5-0.2c-0.2,0-0.4-0.1-0.4-0.2c0-0.3,0.3-0.4,0.8-0.4c1.6,0,4.6,0.1,4.8,0.1c0.2,0,3.3-0.1,4.7-0.1
			c0.5,0,0.7,0.1,0.7,0.4c0,0.2-0.2,0.2-0.4,0.2c-0.4,0-0.8,0.1-1.2,0.1c-1.3,0.2-1.6,1-1.7,2.6c-0.1,1.5-0.1,2.7-0.1,9.9
			L391.2,488.6L391.2,488.6z"/>
		<path class="st1" d="M416.2,495.6c0.1,3.8,0.6,5,1.9,5.3c0.7,0.2,1.6,0.3,2.4,0.3c0.3,0,0.4,0.1,0.4,0.3c0,0.2-0.3,0.4-0.9,0.4
			h-9.6c-0.5,0-0.7,0-0.7-0.4c0-0.2,0.1-0.3,0.4-0.3c0.7,0,1.3-0.1,2-0.3c1.2-0.3,1.4-1.6,1.4-5.8l0.1-26.3c0-1.8,0.1-2.3,0.5-2.3
			s1.2,1,1.6,1.5c0.7,0.8,7.8,8.2,15.1,15.7c4.7,4.8,9.9,10.5,11.4,11.9l-0.5-23.3c-0.1-3-0.4-4-1.9-4.3c-0.7-0.1-1.6-0.2-2.3-0.2
			c-0.3,0-0.4-0.1-0.4-0.3c0-0.2,0.4-0.3,1-0.3h9c0.5,0,0.9,0.1,0.9,0.3c0,0.2-0.1,0.3-0.5,0.3s-0.7,0.1-1.1,0.1
			c-1.6,0.3-1.8,1.3-1.8,4.1l-0.1,26.9c0,3-0.1,3.3-0.4,3.3s-1-0.5-3.5-3c-0.5-0.4-7.3-7.2-12.4-12.4c-5.5-5.7-10.9-11.5-12.5-13.1
			L416.2,495.6z"/>
		<path class="st1" d="M479,488.6c0,4.4,0,8,0.2,9.9c0.1,1.3,0.4,2.3,1.9,2.5c0.7,0.1,1.4,0.1,2.2,0.2c0.3,0,0.4,0.1,0.4,0.3
			c0,0.2-0.3,0.4-0.8,0.4c-2.6,0-5.6-0.1-5.9-0.1c-0.2,0-3.3,0.1-4.7,0.1c-0.5,0-0.7-0.1-0.7-0.4c0-0.1,0.1-0.3,0.4-0.3
			c0.5,0,1-0.1,1.4-0.2c1-0.2,1.2-1.2,1.4-2.5c0.2-1.9,0.2-5.6,0.2-9.9v-19.4l-7,0.1c-3,0.1-4.1,0.4-4.9,1.5
			c-0.3,0.4-0.6,0.9-0.8,1.4c-0.1,0.4-0.3,0.4-0.5,0.4c-0.1,0-0.2-0.1-0.2-0.4c0-0.4,1-4.4,1-4.7c0.1-0.2,0.3-0.8,0.5-0.8
			c0.7,0.2,1.3,0.4,2.1,0.5c1.4,0.1,3.2,0.2,3.8,0.2h18c1.1,0,2.3-0.1,3.4-0.2c0.7-0.1,1.1-0.2,1.3-0.2c0.3,0,0.3,0.3,0.3,0.5
			c0,1.4-0.1,4.5-0.1,5c0,0.4-0.1,0.6-0.3,0.6c-0.2,0-0.3-0.1-0.4-0.8v-0.5c-0.1-1.3-1.3-2.4-5.9-2.5l-6-0.1L479,488.6z"/>
		<path class="st0" d="M42.9,403.8c-9.1,0-14.5,8.5-14.5,16.7v0.6c0,4.2,0,9.5-3.1,11.9c-0.9,0.7-2,1.1-3.1,1.2l-0.7,0.1v3.2
			l0.8-0.1c3.9-0.4,7.3-3,8.8-6.7c2.4,4.2,6.9,6.7,11.7,6.7c8.4,0,14.8-7.5,14.8-17.4C57.2,410.1,51.5,403.8,42.9,403.8z
			 M33.5,419.4c0-7.9,3.4-12.5,9.2-12.5c4.8,0,9.6,4.4,9.6,14.1c0,12.7-7.3,13.1-8.2,13.1C37.7,434.1,33.5,428.3,33.5,419.4z"/>
		<path class="st0" d="M69.9,388.7c0.5,0,1-0.4,1-1l0,0c-0.1-0.7-0.6-1.2-1.3-1.2h-7.4c-0.7,0-1.3,0.5-1.3,1.2c0,0.5,0.4,1,1,1H62
			l0,0c0.9,0,1.3,0.1,1.3,1.6v42.4c-0.1,2.2-0.4,2.4-1.4,2.4h-0.1c-0.5,0.1-0.9,0.5-0.9,1c0.1,0.7,0.6,1.2,1.3,1.2h7.4
			c0.7,0,1.3-0.5,1.3-1.2c0-0.5-0.4-1-0.9-1h-0.1c-1.6,0-1.9,0-1.9-3.4c0-7.4,0-13.4,0-18.2c-0.1-17.2-0.1-20.3,0.1-23.1
			C68.1,388.8,68.5,388.8,69.9,388.7z"/>
		<path class="st0" d="M207.5,403.9c-1.3,0-2.6,0-3.9,0s-2.6,0.1-3.9,0.1c-0.5,0-1,0.4-1,0.9v0.1c0,0.3,0.1,0.6,0.3,0.8
			c0.4,0.4,1,0.4,1.6,0.4c0.1,0,0.3,0,0.6,0.5c0.2,0.4,0.4,0.8,0.4,1.3c0,0.3,0.1,3,0.1,14.3c0,5.5-1,11.9-6.2,11.9
			c-1.1-0.1-2.2-0.4-3.1-1.2c-2.9-2.2-3.1-6.5-3.1-10.8c0-6.2,0-9.2,0.1-11.3c0-1.2,0-2.2,0-3.2c0-1.4,0.4-1.6,1-1.6s1.9,0,1.9-1.1
			c0-0.2-0.1-1.1-1.3-1.1h-7.9c-0.4,0-0.7,0.1-1,0.4c-0.1,0.2-0.3,0.4-0.3,0.7c-0.1,0.2,0,0.4,0.1,0.6c0.3,0.4,0.7,0.5,1.3,0.6
			c0.4,0,0.7,0.1,1,0.2c0.1,0.1,0.2,0.2,0.3,0.4c0.1,0.5,0.1,1.1,0.1,1.6c0,0.9,0,1.4,0,1.5v12.3c0,5.5-1,11.9-6.2,11.9
			c-5.3,0-6.1-7.5-6.1-11.9c0-9.6,0-14.5,0-14.6c0-1.1,0.2-1.4,1.1-1.4c0.7,0,1.9,0,1.9-1.1c0-0.7-0.4-1.1-1.3-1.1h-8
			c-1.2,0-1.3,0.7-1.3,1.1c0,0.9,1,1.1,1.9,1.2c0.2,0,0.5,0.1,0.7,0.1c0.3,0.6,0.4,1.3,0.4,2v13.9c0,4.2-0.2,8.5-3.1,10.8
			c-0.9,0.7-1.9,1.2-3,1.2c-1.1-0.1-2.2-0.5-3.1-1.2c-2.9-2.2-3.1-6.3-3.1-10.8c0.1-13.6,0.1-13.9,0.1-14.2c0-1.6,0.4-1.9,1.1-1.9
			c1.6,0,1.9-0.7,1.9-1.1c0-0.7-0.5-1.2-1.2-1.1c-0.1,0-0.1,0-0.1,0h-8c-1,0-1.3,0.6-1.3,1.1s0.3,1.1,1.9,1.1c0.7,0,1.1,0.2,1.1,2.4
			v13.6c-0.1,7.9-2.2,11.8-6.2,12.1H131c3.7-3.1,5.9-8.3,5.9-14.2c0-9.6-5.8-16-14.5-16c-10.6,0-14.6,10.2-14.6,16.7
			c0,2.2,0.4,9.1,5.6,13.6h-13.1c-1.1-0.1-2.2-0.5-3.1-1.2c-3.1-2.4-3.1-7.4-3.1-11.5v-0.2c0-0.4,0-0.7,0-1.1
			c0-9.5-5.9-16.2-14.5-16.2c-1.2,0-2.4,0.1-3.6,0.4l-0.6,0.1v3.2l1-0.3c0.9-0.3,1.8-0.4,2.7-0.4c5.8,0,9.9,5.9,9.9,14.2
			c0,5.9-2.3,12.9-8.8,12.9c-1.3,0-2.6-0.3-3.7-0.9l-1.1-0.5v4.1l0.6,0.1c5.9,1.3,12.1-1.3,15.2-6.5c1.3,3.6,4.5,6.3,8.2,6.8v0.1
			h0.7l0.8,0.1v-0.1h42.5v0.1l0.8-0.1h0.7v-0.3c3.6-0.5,6.2-2,7.7-4.7c1.6,2.7,4.2,4.3,7.8,4.7v0.1l0.7-0.1l0.7,0.1v-0.1
			c3.6-0.4,6.2-2.1,7.8-4.7c1.7,2.9,4.5,4.5,8.3,4.8h0.1c3.5-0.1,6.7-1.9,8.5-4.8c1.7,3.1,5,5,8.6,4.8c10.9,0,10.9-11.6,10.9-18.5
			v-11.1c0-1.4,0.4-1.5,1.1-1.6c0.4-0.1,1.3-0.2,1.3-1.1C208.8,404.8,208.7,403.9,207.5,403.9z M123.2,434.1
			c-5.1,0-10.2-4.5-10.2-14.6c0-7.9,3.4-12.5,9.2-12.5c5.6,0,9.6,6,9.6,14.2C131.9,430.6,127.4,434.1,123.2,434.1z"/>
		<path class="st0" d="M217.5,419.8c0-2.5,0-5,0-7.6c0-3.4,0-6.8,0-10.1c0-3.3,0-6.7,0-10.1c0-3.3,0.1-3.3,1.9-3.4
			c0.5,0,1-0.4,1-0.9v-0.1c-0.1-0.7-0.6-1.2-1.3-1.2h-7.4c-0.7,0-1.3,0.5-1.3,1.2c0,0.5,0.4,1,1,1c0,0,0,0,0.1,0l0,0
			c1.2,0.1,1.4,0.5,1.4,2.5c0,3.6,0,7.3,0,10.9s0,7.3,0,10.9c0,2.3,0,4.5,0,6.8v0.7h4.7L217.5,419.8z"/>
		<path class="st0" d="M252.8,386.5h-7.4c-1.2,0-1.3,0.7-1.3,1.1c0,1,1.2,1.1,1.9,1.2c0.1,0,0.2,0,0.4,0.1c0.6,0.1,0.7,0.7,0.7,3
			v0.2c0,0.5,0,12.5,0,18.8v11.3c0,5.3-0.7,11.4-6.2,11.9c-5.5-0.5-6.2-6.4-6.2-11.9c0-6.1,0-11.4,0-16.5c0-4.6,0-9.1,0-13.7v-1.1
			c0-1.1,0.1-1.9,0.4-2.1c0.1-0.1,0.4-0.1,0.5-0.1c0.4,0,0.8,0,1.3-0.1c0.4-0.1,0.7-0.4,0.7-0.7l0.1-0.1v-0.1c0-0.3-0.1-1.1-1.3-1.1
			h-7.9c-0.3,0-0.6,0.1-0.8,0.2c-0.3,0.1-0.5,0.5-0.5,0.9c0,0.6,0.4,1.1,1,1.1c1.7,0,1.9,0.1,1.9,2.4c0,6,0,12.6,0,18.5
			c0,4.9,0,9.3,0,12.6c0,8.2-1.9,11.9-6.2,11.9c-4,0-6-3.5-6.2-10.5V423H213l0.1,0.8c0.4,6.3,2.1,13.6,10.8,13.6
			c3.6,0.1,6.8-1.8,8.5-4.8c1.6,2.7,4.2,4.2,7.8,4.7v0.1l0.7-0.1l0.7,0.1v-0.2c10.4-1.5,10.3-11.9,10.2-21.1c0-1,0-1.9,0-2.9v-22.1
			c0-2.4,0.3-2.4,1.3-2.4c0.6-0.1,1-0.5,1-1.1C254.1,387.2,253.9,386.5,252.8,386.5z"/>
		<path class="st0" d="M300.5,403.8c-11.5,0-14.6,10.5-14.6,16.7c0,4.4,1.5,10,5.6,13.6h-14.8c-6.6,0-9-7-9-13.1
			c0-2.2,0.3-4.3,0.9-6.4l0.3-1h-5.3l-0.1,0.5c-0.5,1.9-0.8,3.7-0.8,5.6c0,10.9,7.1,17.4,14,17.4H301l0.7-0.1v-0.1
			c8.6-0.9,13.1-9.3,13.1-17.3C315,410.3,309.2,403.8,300.5,403.8z M291.1,419.4c0-7.9,3.5-12.5,9.3-12.5c5.6,0,9.6,6,9.6,14.2
			c0,9.6-4.5,13-8.7,13C296.2,434.1,291.1,429.6,291.1,419.4L291.1,419.4z"/>
		<path class="st0" d="M393.2,386.5h-7.4c-1.2,0-1.3,0.7-1.3,1.1c0,1,1.2,1.1,1.9,1.2c0.1,0,0.2,0,0.4,0.1c0.6,0.1,0.7,0.7,0.7,3
			v0.2c0,0.5,0,12.5,0,18.8v11.3c0,5.3-0.7,11.3-6,11.9h-0.1c-1.1-0.1-2.2-0.5-3.1-1.2l0,0c-2.9-2.2-3.1-6.7-3.1-10.8
			c0-6.2,0-9.1,0.1-11.3c0-1.2,0-2.2,0-3.2c0-1.6,0.7-1.6,1-1.6c0.7,0,1.9,0,1.9-1.2c0-0.3-0.1-0.6-0.3-0.7c-0.3-0.2-0.7-0.4-1-0.4
			H369c-1.1,0-1.3,0.7-1.3,1.1c0,0.9,0.9,1,1.7,1.1c0.3,0.1,0.6,0.1,0.8,0.1c0.4,0.6,0.4,2.7,0.4,3.8c0,0.3,0,0.6,0,0.9v11.2
			c0,4.2-0.2,8.5-3.1,10.8c-2.1,1.6-4.2,1.6-6.2,0c-2.9-2.2-3.1-6.5-3.1-10.8c0-12,0.1-13.5,0.1-14.1c0-0.1,0-0.2,0-0.4v-0.2
			c0.1-1.2,0.2-1.3,1-1.3c0.6,0,1.9,0,1.9-1.1c0-0.3-0.1-0.6-0.3-0.7c-0.3-0.2-0.7-0.4-1-0.4H352c-1.2,0-1.3,0.7-1.3,1.1
			c0,0.3,0.1,0.6,0.3,0.7c0.4,0.3,0.8,0.4,1.3,0.4c0.1,0,0.2,0,0.3,0l0.1,0.1h0.2c0.3,0,0.4,0.1,0.4,0.1c0.3,0.3,0.3,1.1,0.3,1.8
			V422c0,4.1-0.2,8.5-3.1,10.8c-1.7,1.6-4.3,1.6-6,0c-2.9-2.2-3.1-6.7-3.1-10.8c0-3.3,0-6,0-8.5c0-1.9,0-3.6,0-5.2v-0.1
			c0-2,0.2-2.2,1-2.2h0.1c0.5,0.1,1-0.1,1.5-0.4c0.2-0.2,0.3-0.4,0.3-0.7c0-0.3-0.1-0.6-0.3-0.7c-0.3-0.2-0.7-0.4-1-0.4h-7.9
			c-0.6-0.1-1.2,0.4-1.3,1c0,0.1,0,0.1,0,0.1c0,0.7,0.7,1.2,2.2,1.2c0.1,0,0.2,0,0.4,0.1c0.4,0.4,0.4,1.4,0.4,1.9v0.1l0.1,13.8
			c-0.1,6-1,11.6-6.2,11.9c-3.9-0.2-5.9-3.6-6.2-9.9v-16.5c0-1.3,0.2-1.3,0.7-1.5c0.1-0.1,0.4-0.1,0.6-0.1c0.6,0,1.1-0.4,1.2-1v-0.1
			c0-0.4-0.1-1.1-1.3-1.1c-1.3,0-2.6,0-3.9,0s-2.6,0-3.9,0h-0.2l-0.1,0.1c-0.4,0.1-0.5,0.5-0.5,0.9c0,0.7,0.6,1.3,1.3,1.3h0.1
			c0.1,0,0.3,0,0.4-0.1c0.1,0,0.1,0,0.1,0c0.3,0,0.9,0,0.9,1.6v3c0,4,0,11.1,0,17.4c0,11.1-1,12.2-3.6,15.2
			c-0.4,0.4-0.7,0.8-1.2,1.3l-2.2,2.6l3.1-1.4c5-2.2,8.1-6.4,8.5-11.4c1.5,1.5,3.4,2.4,5.5,2.7v0.1l0.7-0.1l0.7,0.1v-0.1
			c3.6-0.5,6.2-2,7.8-4.7c1.6,3,4.9,5,8.4,4.8c3.5,0,6.8-1.9,8.6-4.9c1.8,3,5,4.9,8.6,4.9h0.1c3.5-0.1,6.6-1.9,8.4-4.9
			c1.6,2.7,4.2,4.2,7.8,4.7v0.1l0.7-0.1l0.7,0.1v-0.1c10.4-1.5,10.3-11.9,10.2-21.1c0-1,0-1.9,0-2.9v-22.1c0-2.4,0.3-2.4,1.3-2.4
			c0.6-0.1,1-0.5,1-1.1C394.5,387.2,394.4,386.5,393.2,386.5z"/>
		<path class="st0" d="M405.4,388.7c0.5,0,1-0.4,1-1l0,0c-0.1-0.7-0.6-1.2-1.3-1.2h-7.4c-0.7,0-1.3,0.5-1.3,1.2c0,0.5,0.4,1,1,1h0.1
			l0,0c0.9,0,1.3,0.1,1.3,1.6v42.4c-0.1,2.2-0.4,2.4-1.4,2.4h-0.1c-0.5,0.1-0.9,0.5-0.9,1c0.1,0.7,0.6,1.2,1.3,1.2h7.4
			c0.7,0,1.3-0.5,1.3-1.2c0-0.5-0.4-1-0.9-1h-0.1c-1.6,0-1.9,0-1.9-3.4v-18c-0.1-17.7-0.1-20.5,0.1-23.3
			C403.6,388.8,404.1,388.8,405.4,388.7z"/>
		<path class="st0" d="M491.8,434.1h-31.9c-4.3-1.2-6.3-6.7-6.3-11.2c0-6.8,3.6-7.3,9.1-7.3c1.8,0,3.6,0.1,5.5,0.2
			c4.9,0.3,9.9,0.6,14.5-0.9c4.7-1.4,6.8-6.6,7.8-9.1l0.2-0.5l-1.4-0.6c-1.9,4.1-5.9,4.9-9.1,5.2c-5.1,0.4-9.8,0.4-14.4,0.3
			c-1.6,0-3.3-0.1-4.9-0.1c-6.5,0-11.9,6.1-11.9,13.5c-0.1,3.9,1.3,7.6,4,10.5h-5.2c-1.1-0.1-2.2-0.5-3.1-1.2l0,0
			c-2.9-2.2-3.1-6.3-3.1-10.8c0.1-13.6,0.1-13.9,0.1-14.2c0-1.6,0.4-1.9,1.1-1.9c1.6,0,1.9-0.7,1.9-1.1c0-0.7-0.5-1.2-1.2-1.1
			c-0.1,0-0.1,0-0.1,0h-8c-1,0-1.3,0.6-1.3,1.1s0.3,1.1,1.9,1.1c0.7,0,1.1,0.2,1.1,2.4V422c-0.1,7.9-2.1,11.8-6.2,12.1
			c-3.9-0.2-5.9-3.6-6.2-9.9v-16.5c0-1.3,0.2-1.3,0.7-1.5c0.1-0.1,0.4-0.1,0.6-0.1c0.6,0,1.1-0.4,1.2-1V405c0-0.4-0.1-1.1-1.3-1.1
			c-1.3,0-2.6,0-3.9,0s-2.6,0-3.9,0h-0.2l-0.1,0.1c-0.4,0.1-0.5,0.5-0.5,0.9c0,0.7,0.6,1.3,1.3,1.3h0.1c0.1,0,0.3,0,0.4-0.1
			c0.1,0,0.1,0,0.1,0c0.3,0,0.9,0,0.9,1.6v3c0,4,0,11.1,0,17.4c0,11.1-1,12.2-3.6,15.2c-0.4,0.4-0.7,0.8-1.2,1.3l-2.2,2.6l3.1-1.4
			c5-2.2,8.1-6.4,8.5-11.4c1.5,1.5,3.4,2.4,5.5,2.7v0.1l0.7-0.1l0.7,0.1l0,0c3.6-0.5,6.2-2,7.7-4.7c1.6,2.7,4.2,4.3,7.8,4.7v0.1h0.7
			l0.8,0.1v-0.1h43v-3.2H491.8z"/>
		<circle class="st0" cx="351.2" cy="393.6" r="3.3"/>
		<circle class="st0" cx="360.5" cy="393.6" r="3.3"/>
		<circle class="st0" cx="148.3" cy="393.6" r="3.3"/>
		<circle class="st0" cx="157.6" cy="393.6" r="3.3"/>
		<circle class="st0" cx="295.8" cy="393.6" r="3.3"/>
		<circle class="st0" cx="305.1" cy="393.6" r="3.3"/>
		<circle class="st0" cx="117.7" cy="393.6" r="3.3"/>
		<circle class="st0" cx="127" cy="393.6" r="3.3"/>
		<circle class="st0" cx="439.5" cy="445.2" r="3.3"/>
		<circle class="st0" cx="355.2" cy="386.1" r="3.3"/>
	</g>
</g>
</svg>
